<svg xmlns="http://www.w3.org/2000/svg" xmlns:xlink="http://www.w3.org/1999/xlink" xmlns:lucid="lucid" width="2654.04" height="1458"><g transform="translate(1247.0212324808554 1101.5)" lucid:page-tab-id="0_0"><path d="M-1185.52-300.3H-760v348h-425.52z" stroke="#333" stroke-width="3" fill="#fff"/><path d="M-1185.52-262.7H-760m-425.52 101.3H-760" stroke="#333" stroke-width="3" fill="none"/><use xlink:href="#a" transform="matrix(1,0,0,1,-1177.5212324808554,-292.3030206874712) translate(171.625 14.6)"/><use xlink:href="#b" transform="matrix(1,0,0,1,-1173.5212324808554,-254.70302068747117) translate(0 25)"/><use xlink:href="#c" transform="matrix(1,0,0,1,-1173.5212324808554,-254.70302068747117) translate(10.95 25)"/><use xlink:href="#b" transform="matrix(1,0,0,1,-1173.5212324808554,-254.70302068747117) translate(0 46.6)"/><use xlink:href="#d" transform="matrix(1,0,0,1,-1173.5212324808554,-254.70302068747117) translate(10.95 46.6)"/><use xlink:href="#e" transform="matrix(1,0,0,1,-1173.5212324808554,-254.70302068747117) translate(0 68.2)"/><use xlink:href="#f" transform="matrix(1,0,0,1,-1173.5212324808554,-153.40302068747116) translate(0 25.000000000000007)"/><use xlink:href="#g" transform="matrix(1,0,0,1,-1173.5212324808554,-153.40302068747116) translate(15.5 25.000000000000007)"/><use xlink:href="#h" transform="matrix(1,0,0,1,-1173.5212324808554,-153.40302068747116) translate(0 46.60000000000001)"/><use xlink:href="#i" transform="matrix(1,0,0,1,-1173.5212324808554,-153.40302068747116) translate(0 68.20000000000002)"/><use xlink:href="#j" transform="matrix(1,0,0,1,-1173.5212324808554,-153.40302068747116) translate(0 89.80000000000003)"/><use xlink:href="#k" transform="matrix(1,0,0,1,-1173.5212324808554,-153.40302068747116) translate(202.2 89.80000000000003)"/><use xlink:href="#l" transform="matrix(1,0,0,1,-1173.5212324808554,-153.40302068747116) translate(0 111.40000000000002)"/><use xlink:href="#m" transform="matrix(1,0,0,1,-1173.5212324808554,-153.40302068747116) translate(191.25 111.40000000000002)"/><use xlink:href="#n" transform="matrix(1,0,0,1,-1173.5212324808554,-153.40302068747116) translate(0 133)"/><use xlink:href="#o" transform="matrix(1,0,0,1,-1173.5212324808554,-153.40302068747116) translate(238.04999999999998 133)"/><use xlink:href="#p" transform="matrix(1,0,0,1,-1173.5212324808554,-153.40302068747116) translate(0 154.6)"/><use xlink:href="#q" transform="matrix(1,0,0,1,-1173.5212324808554,-153.40302068747116) translate(0 176.20000000000002)"/><use xlink:href="#r" transform="matrix(1,0,0,1,-1173.5212324808554,-153.40302068747116) translate(172.25 176.20000000000002)"/><path d="M-1225.52-720H-720v262h-505.52z" stroke="#333" stroke-width="3" fill="#fff"/><path d="M-1225.52-682.4H-720m-505.52 58.1H-720" stroke="#333" stroke-width="3" fill="none"/><use xlink:href="#s" transform="matrix(1,0,0,1,-1217.5212324808554,-712) translate(178.725 14.6)"/><use xlink:href="#b" transform="matrix(1,0,0,1,-1213.5212324808554,-674.4) translate(0 25.1)"/><use xlink:href="#t" transform="matrix(1,0,0,1,-1213.5212324808554,-674.4) translate(10.95 25.1)"/><use xlink:href="#f" transform="matrix(1,0,0,1,-1213.5212324808554,-616.3) translate(0 25.1)"/><use xlink:href="#u" transform="matrix(1,0,0,1,-1213.5212324808554,-616.3) translate(15.5 25.1)"/><use xlink:href="#v" transform="matrix(1,0,0,1,-1213.5212324808554,-616.3) translate(0 46.7)"/><use xlink:href="#w" transform="matrix(1,0,0,1,-1213.5212324808554,-616.3) translate(160.29999999999998 46.7)"/><use xlink:href="#x" transform="matrix(1,0,0,1,-1213.5212324808554,-616.3) translate(215.25 46.7)"/><use xlink:href="#y" transform="matrix(1,0,0,1,-1213.5212324808554,-616.3) translate(239.2 46.7)"/><use xlink:href="#v" transform="matrix(1,0,0,1,-1213.5212324808554,-616.3) translate(0 68.30000000000001)"/><use xlink:href="#w" transform="matrix(1,0,0,1,-1213.5212324808554,-616.3) translate(160.29999999999998 68.30000000000001)"/><use xlink:href="#x" transform="matrix(1,0,0,1,-1213.5212324808554,-616.3) translate(215.25 68.30000000000001)"/><use xlink:href="#z" transform="matrix(1,0,0,1,-1213.5212324808554,-616.3) translate(239.2 68.30000000000001)"/><use xlink:href="#A" transform="matrix(1,0,0,1,-1213.5212324808554,-616.3) translate(356 68.30000000000001)"/><use xlink:href="#B" transform="matrix(1,0,0,1,-1213.5212324808554,-616.3) translate(0 89.90000000000002)"/><use xlink:href="#w" transform="matrix(1,0,0,1,-1213.5212324808554,-616.3) translate(190.2 89.90000000000002)"/><use xlink:href="#x" transform="matrix(1,0,0,1,-1213.5212324808554,-616.3) translate(245.14999999999998 89.90000000000002)"/><use xlink:href="#y" transform="matrix(1,0,0,1,-1213.5212324808554,-616.3) translate(269.09999999999997 89.90000000000002)"/><use xlink:href="#C" transform="matrix(1,0,0,1,-1213.5212324808554,-616.3) translate(0 111.50000000000001)"/><use xlink:href="#D" transform="matrix(1,0,0,1,-1213.5212324808554,-616.3) translate(0 133.1)"/><path d="M-972.76-455v151.7" stroke="#3a414a" stroke-width="3" stroke-linejoin="round" fill="none"/><path d="M-971.3-454.96h-2.94v-1.54h2.95zM-971.3-301.8h-2.94v-1.54h2.95z" stroke="#3a414a" stroke-width=".05" fill="#3a414a"/><path d="M-600-213.8h425.52v175H-600z" stroke="#333" stroke-width="3" fill="#fff"/><path d="M-600-176.2h425.52M-600-118.1h425.52" stroke="#333" stroke-width="3" fill="none"/><use xlink:href="#E" transform="matrix(1,0,0,1,-592,-205.8030206874712) translate(188.525 14.6)"/><use xlink:href="#F" transform="matrix(1,0,0,1,-588,-110.1030206874712) translate(0 24.799999999999997)"/><use xlink:href="#y" transform="matrix(1,0,0,1,-588,-110.1030206874712) translate(94.15 24.799999999999997)"/><use xlink:href="#G" transform="matrix(1,0,0,1,-588,-110.1030206874712) translate(0 46.4)"/><path d="M-603-126.3h-124.38" stroke="#3a414a" stroke-width="3" stroke-linejoin="round" fill="none"/><path d="M-601.5-124.83h-1.54v-2.95h1.54z" stroke="#3a414a" stroke-width=".05" fill="#3a414a"/><path d="M-756.38-126.3l14.85 14.85 14.85-14.85-14.85-14.85z" stroke="#3a414a" stroke-width="3" fill="#3a414a"/><path d="M40-213.8h425.52v261H40z" stroke="#333" stroke-width="3" fill="#fff"/><path d="M40-176.2h425.52M40-107.5h425.52" stroke="#333" stroke-width="3" fill="none"/><g><use xlink:href="#H" transform="matrix(1,0,0,1,48,-205.8030206874712) translate(164.075 14.6)"/></g><g><use xlink:href="#b" transform="matrix(1,0,0,1,52,-168.2030206874712) translate(0 19.299999999999997)"/><use xlink:href="#I" transform="matrix(1,0,0,1,52,-168.2030206874712) translate(10.95 19.299999999999997)"/><use xlink:href="#b" transform="matrix(1,0,0,1,52,-168.2030206874712) translate(0 40.9)"/><use xlink:href="#J" transform="matrix(1,0,0,1,52,-168.2030206874712) translate(10.95 40.9)"/></g><g><use xlink:href="#f" transform="matrix(1,0,0,1,52,-99.50302068747119) translate(0 19.6)"/><use xlink:href="#K" transform="matrix(1,0,0,1,52,-99.50302068747119) translate(15.5 19.6)"/><use xlink:href="#L" transform="matrix(1,0,0,1,52,-99.50302068747119) translate(149.10000000000002 19.6)"/><use xlink:href="#f" transform="matrix(1,0,0,1,52,-99.50302068747119) translate(0 41.2)"/><use xlink:href="#M" transform="matrix(1,0,0,1,52,-99.50302068747119) translate(15.5 41.2)"/><use xlink:href="#N" transform="matrix(1,0,0,1,52,-99.50302068747119) translate(0 62.800000000000004)"/><use xlink:href="#O" transform="matrix(1,0,0,1,52,-99.50302068747119) translate(0 84.40000000000002)"/><use xlink:href="#f" transform="matrix(1,0,0,1,52,-99.50302068747119) translate(0 106.00000000000001)"/><use xlink:href="#P" transform="matrix(1,0,0,1,52,-99.50302068747119) translate(15.5 106.00000000000001)"/><use xlink:href="#Q" transform="matrix(1,0,0,1,52,-99.50302068747119) translate(0 127.60000000000001)"/><use xlink:href="#r" transform="matrix(1,0,0,1,52,-99.50302068747119) translate(186.04999999999995 127.60000000000001)"/></g><path d="M40 160h425.52v175H40z" stroke="#333" stroke-width="3" fill="#fff"/><path d="M40 197.6h425.52M40 244.7h425.52" stroke="#333" stroke-width="3" fill="none"/><g><use xlink:href="#R" transform="matrix(1,0,0,1,48,168) translate(154.625 14.6)"/></g><g><use xlink:href="#f" transform="matrix(1,0,0,1,52,252.7) translate(0 19.5)"/><use xlink:href="#K" transform="matrix(1,0,0,1,52,252.7) translate(15.5 19.5)"/><use xlink:href="#L" transform="matrix(1,0,0,1,52,252.7) translate(149.10000000000002 19.5)"/><use xlink:href="#f" transform="matrix(1,0,0,1,52,252.7) translate(0 41.1)"/><use xlink:href="#M" transform="matrix(1,0,0,1,52,252.7) translate(15.5 41.1)"/><use xlink:href="#f" transform="matrix(1,0,0,1,52,252.7) translate(0 62.7)"/><use xlink:href="#S" transform="matrix(1,0,0,1,52,252.7) translate(15.5 62.7)"/></g><path d="M252.76 157V79.82" stroke="#3a414a" stroke-width="3" stroke-linejoin="round" fill="none"/><path d="M254.24 158.5h-2.95v-1.54h2.94z" stroke="#3a414a" stroke-width=".05" fill="#3a414a"/><path d="M252.76 50.82L237.9 65.67l14.86 14.85 14.85-14.85z" stroke="#3a414a" stroke-width="3" fill="#3a414a"/><path d="M0-640h505.52v175H0z" stroke="#333" stroke-width="3" fill="#fff"/><path d="M0-602.4h505.52M0-555.3h505.52" stroke="#333" stroke-width="3" fill="none"/><g><use xlink:href="#T" transform="matrix(1,0,0,1,8,-632) translate(202.05 14.6)"/></g><g><use xlink:href="#b" transform="matrix(1,0,0,1,12,-594.4) translate(0 19.6)"/><use xlink:href="#U" transform="matrix(1,0,0,1,12,-594.4) translate(10.95 19.6)"/></g><g><use xlink:href="#f" transform="matrix(1,0,0,1,12,-547.3) translate(0 19.5)"/><use xlink:href="#V" transform="matrix(1,0,0,1,12,-547.3) translate(15.5 19.5)"/><use xlink:href="#f" transform="matrix(1,0,0,1,12,-547.3) translate(0 41.1)"/><use xlink:href="#W" transform="matrix(1,0,0,1,12,-547.3) translate(15.5 41.1)"/><use xlink:href="#X" transform="matrix(1,0,0,1,12,-547.3) translate(150.25 41.1)"/><use xlink:href="#Y" transform="matrix(1,0,0,1,12,-547.3) translate(252.10000000000002 41.1)"/><use xlink:href="#Z" transform="matrix(1,0,0,1,12,-547.3) translate(304 41.1)"/><use xlink:href="#aa" transform="matrix(1,0,0,1,12,-547.3) translate(355.9 41.1)"/><use xlink:href="#f" transform="matrix(1,0,0,1,12,-547.3) translate(0 62.7)"/><use xlink:href="#ab" transform="matrix(1,0,0,1,12,-547.3) translate(15.5 62.7)"/><use xlink:href="#ac" transform="matrix(1,0,0,1,12,-547.3) translate(256.99999999999994 62.7)"/></g><path d="M252.76-216.8V-446" stroke="#3a414a" stroke-width="3" stroke-linejoin="round" fill="none"/><path d="M254.24-215.3h-2.95v-1.54h2.94z" stroke="#3a414a" stroke-width=".05" fill="#3a414a"/><path d="M252.76-460.5l7.5 13h-15z" stroke="#3a414a" stroke-width="3" fill="#3a414a"/><path d="M880-720h505.52v132H880z" stroke="#333" stroke-width="3" fill="#fff"/><path d="M880-682.4h505.52M880-635.3h505.52" stroke="#333" stroke-width="3" fill="none"/><g><use xlink:href="#ad" transform="matrix(1,0,0,1,888,-712) translate(211.05 14.6)"/></g><path d="M0-1080h505.52v132H0z" stroke="#333" stroke-width="3" fill="#fff"/><path d="M0-1042.4h505.52M0-995.3h505.52" stroke="#333" stroke-width="3" fill="none"/><g><use xlink:href="#ae" transform="matrix(1,0,0,1,8,-1072) translate(208.05 14.6)"/></g><g><use xlink:href="#af" transform="matrix(1,0,0,1,12,-987.3000000000001) translate(0 19.6)"/></g><path d="M-717-589.03l16.88-.35 17.23-1.08 16.3-1.7 15.47-2.3 14.8-2.82 14.26-3.34 13.8-3.86 13.47-4.37 13.2-4.9 13.04-5.5 12.96-6.1 13-6.78 13.1-7.58 13.4-8.5 13.84-9.63 14.5-11.02 15.53-12.86 17.13-15.45 19.92-19.54 26.1-27.88L-284.8-886.3l19.92-19.55 17.13-15.44 15.53-12.85 14.5-11 13.84-9.63 13.4-8.5 13.1-7.6 13-6.78 12.96-6.1 13.04-5.48 13.2-4.9 13.46-4.38 13.8-3.86 14.27-3.34 14.8-2.83 15.48-2.28 16.3-1.7 17.22-1.1h.9" stroke="#3a414a" stroke-width="3" stroke-linejoin="round" fill="none"/><path d="M-716.92-587.56l-1.58.04v-2.96l1.52-.03z" stroke="#3a414a" stroke-width=".05" fill="#3a414a"/><path d="M-4.5-1013.94l-12.83 7.77-.3-15z" stroke="#3a414a" stroke-width="3" fill="#3a414a"/><path d="M877-654.03l-4.4-.1-5.68-.35-5.5-.58-5.3-.78-5.2-1-5.1-1.2-5.02-1.4-4.95-1.6-4.92-1.83-4.9-2.06-4.9-2.3-4.95-2.6-5-2.88-5.07-3.23-5.17-3.6-5.33-4.05-5.5-4.56-5.75-5.18-6.04-5.9-6.4-6.84-6.9-8-7.55-9.55-8.5-11.7-9.92-14.98-12.65-20.95-22.33-40.98-44.9-84.57-12.66-20.95-9.94-14.98-8.5-11.7-7.54-9.54-6.9-8-6.4-6.83-6.05-5.9-5.74-5.2-5.5-4.55-5.34-4.05-5.2-3.6-5.06-3.22-5-2.88-4.94-2.58-4.9-2.3-4.9-2.07-4.93-1.83-4.95-1.6-5-1.4-5.1-1.2-5.2-1-4.95-.73" stroke="#3a414a" stroke-width="3" stroke-linejoin="round" fill="none"/><path d="M878.5-655.48v2.96l-1.57-.04.06-2.95z" stroke="#3a414a" stroke-width=".05" fill="#3a414a"/><path d="M510-1013.8l13.46-6.67-.96 14.97z" stroke="#3a414a" stroke-width="3" fill="#3a414a"/><path d="M252.76-643v-286" stroke="#3a414a" stroke-width="3" stroke-linejoin="round" fill="none"/><path d="M254.24-641.5h-2.95v-1.54h2.94z" stroke="#3a414a" stroke-width=".05" fill="#3a414a"/><path d="M252.76-943.5l7.5 13h-15z" stroke="#3a414a" stroke-width="3" fill="#3a414a"/><defs><path fill="#333" d="M161-211c-63 0-91 46-91 110 0 39 17 65 58 64 38-1 60-20 74-45l40 20C220-23 184 0 125 4 9 13-10-144 57-208c33-50 166-62 196-1 4 8 9 18 11 27l-48 12c-6-24-25-41-55-41" id="ag"/><path fill="#333" d="M124-194c51 0 84 22 84 74C207-44 167 4 94 4 43 4 11-23 11-74c0-74 41-120 113-120zM99-30c46 0 58-42 58-86 0-27-11-44-37-44-44 0-55 40-57 84-1 27 10 45 36 46" id="ah"/><path fill="#333" d="M151-194c95 0 34 128 28 194h-49l25-134c0-29-45-25-59-9C67-111 69-48 56 0H6l36-190h47l-4 32c15-20 33-36 66-36" id="ai"/><path fill="#333" d="M72-63c-8 23 5 39 32 30L98-1C54 14 12-6 23-64l18-93H15l7-33h28l24-45h31l-8 45h35l-6 33H90" id="aj"/><path fill="#333" d="M166-52c-4 17 5 29 24 23l-3 27c-30 11-74 1-67-34C105-15 91 4 56 4 23 4 3-15 2-49c0-64 63-67 128-67 10-22 3-53-29-45-13 3-22 10-25 24l-46-5c5-64 156-77 153 0-1 33-11 60-17 90zM97-88c-44-9-64 57-19 57 31 0 42-28 47-57H97" id="ak"/><path fill="#333" d="M67-101c-8 29-7 73 27 71 23-2 32-16 39-37l48 9C170-19 141 4 91 4 36 4 7-28 12-86c6-75 61-124 140-103 26 7 40 29 43 59l-50 4c-1-20-9-34-29-34-35 0-41 29-49 59" id="al"/><g id="a"><use transform="matrix(0.05,0,0,0.05,0,0)" xlink:href="#ag"/><use transform="matrix(0.05,0,0,0.05,12.950000000000001,0)" xlink:href="#ah"/><use transform="matrix(0.05,0,0,0.05,23.900000000000002,0)" xlink:href="#ai"/><use transform="matrix(0.05,0,0,0.05,34.85,0)" xlink:href="#aj"/><use transform="matrix(0.05,0,0,0.05,40.800000000000004,0)" xlink:href="#ak"/><use transform="matrix(0.05,0,0,0.05,50.800000000000004,0)" xlink:href="#aj"/><use transform="matrix(0.05,0,0,0.05,56.75,0)" xlink:href="#al"/></g><path fill="#333" d="M16-82v-28h88v28H16" id="am"/><use transform="matrix(0.05,0,0,0.05,0,0)" xlink:href="#am" id="b"/><path fill="#333" d="M117-194c89-4 53 116 60 194h-32v-121c0-31-8-49-39-48C34-167 62-67 57 0H25l-1-190h30c1 10-1 24 2 32 11-22 29-35 61-36" id="an"/><path fill="#333" d="M141-36C126-15 110 5 73 4 37 3 15-17 15-53c-1-64 63-63 125-63 3-35-9-54-41-54-24 1-41 7-42 31l-33-3c5-37 33-52 76-52 45 0 72 20 72 64v82c-1 20 7 32 28 27v20c-31 9-61-2-59-35zM48-53c0 20 12 33 32 33 41-3 63-29 60-74-43 2-92-5-92 41" id="ao"/><path fill="#333" d="M210-169c-67 3-38 105-44 169h-31v-121c0-29-5-50-35-48C34-165 62-65 56 0H25l-1-190h30c1 10-1 24 2 32 10-44 99-50 107 0 11-21 27-35 58-36 85-2 47 119 55 194h-31v-121c0-29-5-49-35-48" id="ap"/><path fill="#333" d="M100-194c63 0 86 42 84 106H49c0 40 14 67 53 68 26 1 43-12 49-29l28 8c-11 28-37 45-77 45C44 4 14-33 15-96c1-61 26-98 85-98zm52 81c6-60-76-77-97-28-3 7-6 17-6 28h103" id="aq"/><path fill="#333" d="M212-179c-10-28-35-45-73-45-59 0-87 40-87 99 0 60 29 101 89 101 43 0 62-24 78-52l27 14C228-24 195 4 139 4 59 4 22-46 18-125c-6-104 99-153 187-111 19 9 31 26 39 46" id="ar"/><path fill="#333" d="M100-194c62-1 85 37 85 99 1 63-27 99-86 99S16-35 15-95c0-66 28-99 85-99zM99-20c44 1 53-31 53-75 0-43-8-75-51-75s-53 32-53 75 10 74 51 75" id="as"/><path fill="#333" d="M59-47c-2 24 18 29 38 22v24C64 9 27 4 27-40v-127H5v-23h24l9-43h21v43h35v23H59v120" id="at"/><path fill="#333" d="M96-169c-40 0-48 33-48 73s9 75 48 75c24 0 41-14 43-38l32 2c-6 37-31 61-74 61-59 0-76-41-82-99-10-93 101-131 147-64 4 7 5 14 7 22l-32 3c-4-21-16-35-41-35" id="au"/><path fill="#333" d="M33-154v-36h34v36H33zM33 0v-36h34V0H33" id="av"/><path fill="#333" d="M185-189c-5-48-123-54-124 2 14 75 158 14 163 119 3 78-121 87-175 55-17-10-28-26-33-46l33-7c5 56 141 63 141-1 0-78-155-14-162-118-5-82 145-84 179-34 5 7 8 16 11 25" id="aw"/><path fill="#333" d="M114-163C36-179 61-72 57 0H25l-1-190h30c1 12-1 29 2 39 6-27 23-49 58-41v29" id="ax"/><path fill="#333" d="M24-231v-30h32v30H24zM24 0v-190h32V0H24" id="ay"/><path fill="#333" d="M177-190C167-65 218 103 67 71c-23-6-38-20-44-43l32-5c15 47 100 32 89-28v-30C133-14 115 1 83 1 29 1 15-40 15-95c0-56 16-97 71-98 29-1 48 16 59 35 1-10 0-23 2-32h30zM94-22c36 0 50-32 50-73 0-42-14-75-50-75-39 0-46 34-46 75s6 73 46 73" id="az"/><g id="c"><use transform="matrix(0.05,0,0,0.05,0,0)" xlink:href="#an"/><use transform="matrix(0.05,0,0,0.05,10,0)" xlink:href="#ao"/><use transform="matrix(0.05,0,0,0.05,20,0)" xlink:href="#ap"/><use transform="matrix(0.05,0,0,0.05,34.95,0)" xlink:href="#aq"/><use transform="matrix(0.05,0,0,0.05,44.95,0)" xlink:href="#ar"/><use transform="matrix(0.05,0,0,0.05,57.900000000000006,0)" xlink:href="#as"/><use transform="matrix(0.05,0,0,0.05,67.9,0)" xlink:href="#an"/><use transform="matrix(0.05,0,0,0.05,77.9,0)" xlink:href="#at"/><use transform="matrix(0.05,0,0,0.05,82.9,0)" xlink:href="#ao"/><use transform="matrix(0.05,0,0,0.05,92.9,0)" xlink:href="#au"/><use transform="matrix(0.05,0,0,0.05,101.9,0)" xlink:href="#at"/><use transform="matrix(0.05,0,0,0.05,106.9,0)" xlink:href="#av"/><use transform="matrix(0.05,0,0,0.05,111.9,0)" xlink:href="#aw"/><use transform="matrix(0.05,0,0,0.05,123.9,0)" xlink:href="#at"/><use transform="matrix(0.05,0,0,0.05,128.9,0)" xlink:href="#ax"/><use transform="matrix(0.05,0,0,0.05,134.85,0)" xlink:href="#ay"/><use transform="matrix(0.05,0,0,0.05,138.79999999999998,0)" xlink:href="#an"/><use transform="matrix(0.05,0,0,0.05,148.79999999999998,0)" xlink:href="#az"/></g><path fill="#333" d="M84 4C-5 8 30-112 23-190h32v120c0 31 7 50 39 49 72-2 45-101 50-169h31l1 190h-30c-1-10 1-25-2-33-11 22-28 36-60 37" id="aA"/><path fill="#333" d="M115-194c53 0 69 39 70 98 0 66-23 100-70 100C84 3 66-7 56-30L54 0H23l1-261h32v101c10-23 28-34 59-34zm-8 174c40 0 45-34 45-75 0-40-5-75-45-74-42 0-51 32-51 76 0 43 10 73 51 73" id="aB"/><g id="d"><use transform="matrix(0.05,0,0,0.05,0,0)" xlink:href="#an"/><use transform="matrix(0.05,0,0,0.05,10,0)" xlink:href="#aA"/><use transform="matrix(0.05,0,0,0.05,20,0)" xlink:href="#ap"/><use transform="matrix(0.05,0,0,0.05,34.95,0)" xlink:href="#aB"/><use transform="matrix(0.05,0,0,0.05,44.95,0)" xlink:href="#aq"/><use transform="matrix(0.05,0,0,0.05,54.95,0)" xlink:href="#ax"/><use transform="matrix(0.05,0,0,0.05,60.900000000000006,0)" xlink:href="#ar"/><use transform="matrix(0.05,0,0,0.05,73.85000000000001,0)" xlink:href="#as"/><use transform="matrix(0.05,0,0,0.05,83.85000000000001,0)" xlink:href="#an"/><use transform="matrix(0.05,0,0,0.05,93.85000000000001,0)" xlink:href="#at"/><use transform="matrix(0.05,0,0,0.05,98.85000000000001,0)" xlink:href="#ao"/><use transform="matrix(0.05,0,0,0.05,108.85000000000001,0)" xlink:href="#au"/><use transform="matrix(0.05,0,0,0.05,117.85000000000001,0)" xlink:href="#at"/><use transform="matrix(0.05,0,0,0.05,122.85000000000001,0)" xlink:href="#av"/><use transform="matrix(0.05,0,0,0.05,127.85000000000001,0)" xlink:href="#ay"/><use transform="matrix(0.05,0,0,0.05,131.8,0)" xlink:href="#an"/><use transform="matrix(0.05,0,0,0.05,141.8,0)" xlink:href="#at"/></g><path fill="#333" d="M85-194c31 0 48 13 60 33l-1-100h32l1 261h-30c-2-10 0-23-3-31C134-8 116 4 85 4 32 4 16-35 15-94c0-66 23-100 70-100zm9 24c-40 0-46 34-46 75 0 40 6 74 45 74 42 0 51-32 51-76 0-42-9-74-50-73" id="aC"/><path fill="#333" d="M135-143c-3-34-86-38-87 0 15 53 115 12 119 90S17 21 10-45l28-5c4 36 97 45 98 0-10-56-113-15-118-90-4-57 82-63 122-42 12 7 21 19 24 35" id="aD"/><path fill="#333" d="M115-194c55 1 70 41 70 98S169 2 115 4C84 4 66-9 55-30l1 105H24l-1-265h31l2 30c10-21 28-34 59-34zm-8 174c40 0 45-34 45-75s-6-73-45-74c-42 0-51 32-51 76 0 43 10 73 51 73" id="aE"/><g id="e"><use transform="matrix(0.05,0,0,0.05,0,0)" xlink:href="#am"/><use transform="matrix(0.05,0,0,0.05,5.95,0)" xlink:href="#aC"/><use transform="matrix(0.05,0,0,0.05,15.949999999999998,0)" xlink:href="#ay"/><use transform="matrix(0.05,0,0,0.05,19.9,0)" xlink:href="#aD"/><use transform="matrix(0.05,0,0,0.05,28.899999999999995,0)" xlink:href="#au"/><use transform="matrix(0.05,0,0,0.05,37.9,0)" xlink:href="#ax"/><use transform="matrix(0.05,0,0,0.05,43.85,0)" xlink:href="#ay"/><use transform="matrix(0.05,0,0,0.05,47.800000000000004,0)" xlink:href="#aE"/><use transform="matrix(0.05,0,0,0.05,57.800000000000004,0)" xlink:href="#at"/><use transform="matrix(0.05,0,0,0.05,62.800000000000004,0)" xlink:href="#ay"/><use transform="matrix(0.05,0,0,0.05,66.75,0)" xlink:href="#as"/><use transform="matrix(0.05,0,0,0.05,76.75,0)" xlink:href="#an"/><use transform="matrix(0.05,0,0,0.05,86.75,0)" xlink:href="#ar"/><use transform="matrix(0.05,0,0,0.05,99.7,0)" xlink:href="#as"/><use transform="matrix(0.05,0,0,0.05,109.7,0)" xlink:href="#an"/><use transform="matrix(0.05,0,0,0.05,119.7,0)" xlink:href="#at"/><use transform="matrix(0.05,0,0,0.05,124.7,0)" xlink:href="#ao"/><use transform="matrix(0.05,0,0,0.05,134.7,0)" xlink:href="#au"/><use transform="matrix(0.05,0,0,0.05,143.7,0)" xlink:href="#at"/><use transform="matrix(0.05,0,0,0.05,148.7,0)" xlink:href="#av"/><use transform="matrix(0.05,0,0,0.05,153.7,0)" xlink:href="#aw"/><use transform="matrix(0.05,0,0,0.05,165.7,0)" xlink:href="#at"/><use transform="matrix(0.05,0,0,0.05,170.7,0)" xlink:href="#ax"/><use transform="matrix(0.05,0,0,0.05,176.64999999999998,0)" xlink:href="#ay"/><use transform="matrix(0.05,0,0,0.05,180.59999999999997,0)" xlink:href="#an"/><use transform="matrix(0.05,0,0,0.05,190.59999999999997,0)" xlink:href="#az"/></g><path fill="#333" d="M118-107v75H92v-75H18v-26h74v-75h26v75h74v26h-74" id="aF"/><use transform="matrix(0.05,0,0,0.05,0,0)" xlink:href="#aF" id="f"/><path fill="#333" d="M190 0L58-211 59 0H30v-248h39L202-35l-2-213h31V0h-41" id="aG"/><path fill="#333" d="M87 75C49 33 22-17 22-94c0-76 28-126 65-167h31c-38 41-64 92-64 168S80 34 118 75H87" id="aH"/><path fill="#333" d="M33-261c38 41 65 92 65 168S71 34 33 75H2C39 34 66-17 66-93S39-220 2-261h31" id="aI"/><g id="g"><use transform="matrix(0.05,0,0,0.05,0,0)" xlink:href="#az"/><use transform="matrix(0.05,0,0,0.05,10,0)" xlink:href="#aq"/><use transform="matrix(0.05,0,0,0.05,20,0)" xlink:href="#at"/><use transform="matrix(0.05,0,0,0.05,25,0)" xlink:href="#aG"/><use transform="matrix(0.05,0,0,0.05,37.95,0)" xlink:href="#ao"/><use transform="matrix(0.05,0,0,0.05,47.95,0)" xlink:href="#ap"/><use transform="matrix(0.05,0,0,0.05,62.900000000000006,0)" xlink:href="#aq"/><use transform="matrix(0.05,0,0,0.05,72.9,0)" xlink:href="#ar"/><use transform="matrix(0.05,0,0,0.05,85.85000000000001,0)" xlink:href="#as"/><use transform="matrix(0.05,0,0,0.05,95.85000000000001,0)" xlink:href="#an"/><use transform="matrix(0.05,0,0,0.05,105.85000000000001,0)" xlink:href="#at"/><use transform="matrix(0.05,0,0,0.05,110.85000000000001,0)" xlink:href="#ao"/><use transform="matrix(0.05,0,0,0.05,120.85000000000001,0)" xlink:href="#au"/><use transform="matrix(0.05,0,0,0.05,129.85000000000002,0)" xlink:href="#at"/><use transform="matrix(0.05,0,0,0.05,134.85000000000002,0)" xlink:href="#aH"/><use transform="matrix(0.05,0,0,0.05,140.8,0)" xlink:href="#aI"/><use transform="matrix(0.05,0,0,0.05,146.75,0)" xlink:href="#av"/><use transform="matrix(0.05,0,0,0.05,151.75,0)" xlink:href="#aw"/><use transform="matrix(0.05,0,0,0.05,163.75,0)" xlink:href="#at"/><use transform="matrix(0.05,0,0,0.05,168.75,0)" xlink:href="#ax"/><use transform="matrix(0.05,0,0,0.05,174.7,0)" xlink:href="#ay"/><use transform="matrix(0.05,0,0,0.05,178.64999999999998,0)" xlink:href="#an"/><use transform="matrix(0.05,0,0,0.05,188.64999999999998,0)" xlink:href="#az"/></g><path fill="#333" d="M33 0v-248h34V0H33" id="aJ"/><g id="h"><use transform="matrix(0.05,0,0,0.05,0,0)" xlink:href="#aF"/><use transform="matrix(0.05,0,0,0.05,10.5,0)" xlink:href="#az"/><use transform="matrix(0.05,0,0,0.05,20.5,0)" xlink:href="#aq"/><use transform="matrix(0.05,0,0,0.05,30.5,0)" xlink:href="#at"/><use transform="matrix(0.05,0,0,0.05,35.5,0)" xlink:href="#aG"/><use transform="matrix(0.05,0,0,0.05,48.45,0)" xlink:href="#aA"/><use transform="matrix(0.05,0,0,0.05,58.45,0)" xlink:href="#ap"/><use transform="matrix(0.05,0,0,0.05,73.4,0)" xlink:href="#aB"/><use transform="matrix(0.05,0,0,0.05,83.4,0)" xlink:href="#aq"/><use transform="matrix(0.05,0,0,0.05,93.4,0)" xlink:href="#ax"/><use transform="matrix(0.05,0,0,0.05,99.35000000000001,0)" xlink:href="#ar"/><use transform="matrix(0.05,0,0,0.05,112.30000000000001,0)" xlink:href="#as"/><use transform="matrix(0.05,0,0,0.05,122.30000000000001,0)" xlink:href="#an"/><use transform="matrix(0.05,0,0,0.05,132.3,0)" xlink:href="#at"/><use transform="matrix(0.05,0,0,0.05,137.3,0)" xlink:href="#ao"/><use transform="matrix(0.05,0,0,0.05,147.3,0)" xlink:href="#au"/><use transform="matrix(0.05,0,0,0.05,156.3,0)" xlink:href="#at"/><use transform="matrix(0.05,0,0,0.05,161.3,0)" xlink:href="#aH"/><use transform="matrix(0.05,0,0,0.05,167.25,0)" xlink:href="#aI"/><use transform="matrix(0.05,0,0,0.05,173.2,0)" xlink:href="#av"/><use transform="matrix(0.05,0,0,0.05,178.2,0)" xlink:href="#aJ"/><use transform="matrix(0.05,0,0,0.05,183.2,0)" xlink:href="#an"/><use transform="matrix(0.05,0,0,0.05,193.2,0)" xlink:href="#at"/></g><path fill="#333" d="M30-248c118-7 216 8 213 122C240-48 200 0 122 0H30v-248zM63-27c89 8 146-16 146-99s-60-101-146-95v194" id="aK"/><g id="i"><use transform="matrix(0.05,0,0,0.05,0,0)" xlink:href="#aF"/><use transform="matrix(0.05,0,0,0.05,10.5,0)" xlink:href="#az"/><use transform="matrix(0.05,0,0,0.05,20.5,0)" xlink:href="#aq"/><use transform="matrix(0.05,0,0,0.05,30.5,0)" xlink:href="#at"/><use transform="matrix(0.05,0,0,0.05,35.5,0)" xlink:href="#aK"/><use transform="matrix(0.05,0,0,0.05,48.45,0)" xlink:href="#ay"/><use transform="matrix(0.05,0,0,0.05,52.400000000000006,0)" xlink:href="#aD"/><use transform="matrix(0.05,0,0,0.05,61.400000000000006,0)" xlink:href="#au"/><use transform="matrix(0.05,0,0,0.05,70.4,0)" xlink:href="#ax"/><use transform="matrix(0.05,0,0,0.05,76.35000000000001,0)" xlink:href="#ay"/><use transform="matrix(0.05,0,0,0.05,80.30000000000001,0)" xlink:href="#aE"/><use transform="matrix(0.05,0,0,0.05,90.30000000000001,0)" xlink:href="#at"/><use transform="matrix(0.05,0,0,0.05,95.30000000000001,0)" xlink:href="#ay"/><use transform="matrix(0.05,0,0,0.05,99.25000000000001,0)" xlink:href="#as"/><use transform="matrix(0.05,0,0,0.05,109.25,0)" xlink:href="#an"/><use transform="matrix(0.05,0,0,0.05,119.25,0)" xlink:href="#ar"/><use transform="matrix(0.05,0,0,0.05,132.20000000000002,0)" xlink:href="#as"/><use transform="matrix(0.05,0,0,0.05,142.20000000000002,0)" xlink:href="#an"/><use transform="matrix(0.05,0,0,0.05,152.20000000000002,0)" xlink:href="#at"/><use transform="matrix(0.05,0,0,0.05,157.20000000000002,0)" xlink:href="#ao"/><use transform="matrix(0.05,0,0,0.05,167.20000000000002,0)" xlink:href="#au"/><use transform="matrix(0.05,0,0,0.05,176.20000000000002,0)" xlink:href="#at"/><use transform="matrix(0.05,0,0,0.05,181.20000000000002,0)" xlink:href="#aH"/><use transform="matrix(0.05,0,0,0.05,187.15,0)" xlink:href="#aI"/><use transform="matrix(0.05,0,0,0.05,193.1,0)" xlink:href="#av"/><use transform="matrix(0.05,0,0,0.05,198.1,0)" xlink:href="#aw"/><use transform="matrix(0.05,0,0,0.05,210.10000000000002,0)" xlink:href="#at"/><use transform="matrix(0.05,0,0,0.05,215.10000000000002,0)" xlink:href="#ax"/><use transform="matrix(0.05,0,0,0.05,221.04999999999995,0)" xlink:href="#ay"/><use transform="matrix(0.05,0,0,0.05,224.99999999999997,0)" xlink:href="#an"/><use transform="matrix(0.05,0,0,0.05,234.99999999999997,0)" xlink:href="#az"/></g><g id="j"><use transform="matrix(0.05,0,0,0.05,0,0)" xlink:href="#aF"/><use transform="matrix(0.05,0,0,0.05,10.5,0)" xlink:href="#aD"/><use transform="matrix(0.05,0,0,0.05,19.5,0)" xlink:href="#aq"/><use transform="matrix(0.05,0,0,0.05,29.5,0)" xlink:href="#at"/><use transform="matrix(0.05,0,0,0.05,34.5,0)" xlink:href="#aG"/><use transform="matrix(0.05,0,0,0.05,47.45,0)" xlink:href="#ao"/><use transform="matrix(0.05,0,0,0.05,57.45,0)" xlink:href="#ap"/><use transform="matrix(0.05,0,0,0.05,72.4,0)" xlink:href="#aq"/><use transform="matrix(0.05,0,0,0.05,82.4,0)" xlink:href="#ar"/><use transform="matrix(0.05,0,0,0.05,95.35000000000001,0)" xlink:href="#as"/><use transform="matrix(0.05,0,0,0.05,105.35000000000001,0)" xlink:href="#an"/><use transform="matrix(0.05,0,0,0.05,115.35000000000001,0)" xlink:href="#at"/><use transform="matrix(0.05,0,0,0.05,120.35000000000001,0)" xlink:href="#ao"/><use transform="matrix(0.05,0,0,0.05,130.35000000000002,0)" xlink:href="#au"/><use transform="matrix(0.05,0,0,0.05,139.35000000000002,0)" xlink:href="#at"/><use transform="matrix(0.05,0,0,0.05,144.35000000000002,0)" xlink:href="#aH"/><use transform="matrix(0.05,0,0,0.05,150.3,0)" xlink:href="#aw"/><use transform="matrix(0.05,0,0,0.05,162.3,0)" xlink:href="#at"/><use transform="matrix(0.05,0,0,0.05,167.3,0)" xlink:href="#ax"/><use transform="matrix(0.05,0,0,0.05,173.25,0)" xlink:href="#ay"/><use transform="matrix(0.05,0,0,0.05,177.2,0)" xlink:href="#an"/><use transform="matrix(0.05,0,0,0.05,187.2,0)" xlink:href="#az"/></g><path fill="#333" d="M108 0H70L1-190h34L89-25l56-165h34" id="aL"/><g id="k"><use transform="matrix(0.05,0,0,0.05,0,0)" xlink:href="#an"/><use transform="matrix(0.05,0,0,0.05,10,0)" xlink:href="#ao"/><use transform="matrix(0.05,0,0,0.05,20,0)" xlink:href="#ap"/><use transform="matrix(0.05,0,0,0.05,34.95,0)" xlink:href="#aq"/><use transform="matrix(0.05,0,0,0.05,44.95,0)" xlink:href="#aI"/><use transform="matrix(0.05,0,0,0.05,50.900000000000006,0)" xlink:href="#av"/><use transform="matrix(0.05,0,0,0.05,55.900000000000006,0)" xlink:href="#aL"/><use transform="matrix(0.05,0,0,0.05,64.9,0)" xlink:href="#as"/><use transform="matrix(0.05,0,0,0.05,74.9,0)" xlink:href="#ay"/><use transform="matrix(0.05,0,0,0.05,78.85000000000001,0)" xlink:href="#aC"/></g><g id="l"><use transform="matrix(0.05,0,0,0.05,0,0)" xlink:href="#aF"/><use transform="matrix(0.05,0,0,0.05,10.5,0)" xlink:href="#aD"/><use transform="matrix(0.05,0,0,0.05,19.5,0)" xlink:href="#aq"/><use transform="matrix(0.05,0,0,0.05,29.5,0)" xlink:href="#at"/><use transform="matrix(0.05,0,0,0.05,34.5,0)" xlink:href="#aG"/><use transform="matrix(0.05,0,0,0.05,47.45,0)" xlink:href="#aA"/><use transform="matrix(0.05,0,0,0.05,57.45,0)" xlink:href="#ap"/><use transform="matrix(0.05,0,0,0.05,72.4,0)" xlink:href="#aB"/><use transform="matrix(0.05,0,0,0.05,82.4,0)" xlink:href="#aq"/><use transform="matrix(0.05,0,0,0.05,92.4,0)" xlink:href="#ax"/><use transform="matrix(0.05,0,0,0.05,98.35000000000001,0)" xlink:href="#ar"/><use transform="matrix(0.05,0,0,0.05,111.30000000000001,0)" xlink:href="#as"/><use transform="matrix(0.05,0,0,0.05,121.30000000000001,0)" xlink:href="#an"/><use transform="matrix(0.05,0,0,0.05,131.3,0)" xlink:href="#at"/><use transform="matrix(0.05,0,0,0.05,136.3,0)" xlink:href="#ao"/><use transform="matrix(0.05,0,0,0.05,146.3,0)" xlink:href="#au"/><use transform="matrix(0.05,0,0,0.05,155.3,0)" xlink:href="#at"/><use transform="matrix(0.05,0,0,0.05,160.3,0)" xlink:href="#aH"/><use transform="matrix(0.05,0,0,0.05,166.25,0)" xlink:href="#aJ"/><use transform="matrix(0.05,0,0,0.05,171.25,0)" xlink:href="#an"/><use transform="matrix(0.05,0,0,0.05,181.25,0)" xlink:href="#at"/></g><g id="m"><use transform="matrix(0.05,0,0,0.05,0,0)" xlink:href="#an"/><use transform="matrix(0.05,0,0,0.05,10,0)" xlink:href="#aA"/><use transform="matrix(0.05,0,0,0.05,20,0)" xlink:href="#ap"/><use transform="matrix(0.05,0,0,0.05,34.95,0)" xlink:href="#aB"/><use transform="matrix(0.05,0,0,0.05,44.95,0)" xlink:href="#aq"/><use transform="matrix(0.05,0,0,0.05,54.95,0)" xlink:href="#ax"/><use transform="matrix(0.05,0,0,0.05,60.900000000000006,0)" xlink:href="#aI"/><use transform="matrix(0.05,0,0,0.05,66.85000000000001,0)" xlink:href="#aL"/><use transform="matrix(0.05,0,0,0.05,75.85000000000001,0)" xlink:href="#as"/><use transform="matrix(0.05,0,0,0.05,85.85000000000001,0)" xlink:href="#ay"/><use transform="matrix(0.05,0,0,0.05,89.80000000000001,0)" xlink:href="#aC"/></g><g id="n"><use transform="matrix(0.05,0,0,0.05,0,0)" xlink:href="#aF"/><use transform="matrix(0.05,0,0,0.05,10.5,0)" xlink:href="#aD"/><use transform="matrix(0.05,0,0,0.05,19.5,0)" xlink:href="#aq"/><use transform="matrix(0.05,0,0,0.05,29.5,0)" xlink:href="#at"/><use transform="matrix(0.05,0,0,0.05,34.5,0)" xlink:href="#aK"/><use transform="matrix(0.05,0,0,0.05,47.45,0)" xlink:href="#ay"/><use transform="matrix(0.05,0,0,0.05,51.400000000000006,0)" xlink:href="#aD"/><use transform="matrix(0.05,0,0,0.05,60.400000000000006,0)" xlink:href="#au"/><use transform="matrix(0.05,0,0,0.05,69.4,0)" xlink:href="#ax"/><use transform="matrix(0.05,0,0,0.05,75.35000000000001,0)" xlink:href="#ay"/><use transform="matrix(0.05,0,0,0.05,79.30000000000001,0)" xlink:href="#aE"/><use transform="matrix(0.05,0,0,0.05,89.30000000000001,0)" xlink:href="#at"/><use transform="matrix(0.05,0,0,0.05,94.30000000000001,0)" xlink:href="#ay"/><use transform="matrix(0.05,0,0,0.05,98.25000000000001,0)" xlink:href="#as"/><use transform="matrix(0.05,0,0,0.05,108.25,0)" xlink:href="#an"/><use transform="matrix(0.05,0,0,0.05,118.25,0)" xlink:href="#ar"/><use transform="matrix(0.05,0,0,0.05,131.20000000000002,0)" xlink:href="#as"/><use transform="matrix(0.05,0,0,0.05,141.20000000000002,0)" xlink:href="#an"/><use transform="matrix(0.05,0,0,0.05,151.20000000000002,0)" xlink:href="#at"/><use transform="matrix(0.05,0,0,0.05,156.20000000000002,0)" xlink:href="#ao"/><use transform="matrix(0.05,0,0,0.05,166.20000000000002,0)" xlink:href="#au"/><use transform="matrix(0.05,0,0,0.05,175.20000000000002,0)" xlink:href="#at"/><use transform="matrix(0.05,0,0,0.05,180.20000000000002,0)" xlink:href="#aH"/><use transform="matrix(0.05,0,0,0.05,186.15,0)" xlink:href="#aw"/><use transform="matrix(0.05,0,0,0.05,198.15,0)" xlink:href="#at"/><use transform="matrix(0.05,0,0,0.05,203.15,0)" xlink:href="#ax"/><use transform="matrix(0.05,0,0,0.05,209.10000000000002,0)" xlink:href="#ay"/><use transform="matrix(0.05,0,0,0.05,213.04999999999995,0)" xlink:href="#an"/><use transform="matrix(0.05,0,0,0.05,223.04999999999995,0)" xlink:href="#az"/></g><g id="o"><use transform="matrix(0.05,0,0,0.05,0,0)" xlink:href="#aC"/><use transform="matrix(0.05,0,0,0.05,10,0)" xlink:href="#ay"/><use transform="matrix(0.05,0,0,0.05,13.949999999999998,0)" xlink:href="#aD"/><use transform="matrix(0.05,0,0,0.05,22.95,0)" xlink:href="#au"/><use transform="matrix(0.05,0,0,0.05,31.950000000000003,0)" xlink:href="#ax"/><use transform="matrix(0.05,0,0,0.05,37.9,0)" xlink:href="#ay"/><use transform="matrix(0.05,0,0,0.05,41.85,0)" xlink:href="#aE"/><use transform="matrix(0.05,0,0,0.05,51.85,0)" xlink:href="#at"/><use transform="matrix(0.05,0,0,0.05,56.85,0)" xlink:href="#ay"/><use transform="matrix(0.05,0,0,0.05,60.800000000000004,0)" xlink:href="#as"/><use transform="matrix(0.05,0,0,0.05,70.80000000000001,0)" xlink:href="#an"/><use transform="matrix(0.05,0,0,0.05,80.80000000000001,0)" xlink:href="#aI"/><use transform="matrix(0.05,0,0,0.05,86.75000000000001,0)" xlink:href="#av"/><use transform="matrix(0.05,0,0,0.05,91.75000000000001,0)" xlink:href="#aL"/><use transform="matrix(0.05,0,0,0.05,100.75000000000001,0)" xlink:href="#as"/><use transform="matrix(0.05,0,0,0.05,110.75,0)" xlink:href="#ay"/><use transform="matrix(0.05,0,0,0.05,114.7,0)" xlink:href="#aC"/></g><g id="p"><use transform="matrix(0.05,0,0,0.05,0,0)" xlink:href="#aF"/><use transform="matrix(0.05,0,0,0.05,10.5,0)" xlink:href="#at"/><use transform="matrix(0.05,0,0,0.05,15.5,0)" xlink:href="#as"/><use transform="matrix(0.05,0,0,0.05,25.5,0)" xlink:href="#aw"/><use transform="matrix(0.05,0,0,0.05,37.5,0)" xlink:href="#at"/><use transform="matrix(0.05,0,0,0.05,42.5,0)" xlink:href="#ax"/><use transform="matrix(0.05,0,0,0.05,48.45,0)" xlink:href="#ay"/><use transform="matrix(0.05,0,0,0.05,52.400000000000006,0)" xlink:href="#an"/><use transform="matrix(0.05,0,0,0.05,62.400000000000006,0)" xlink:href="#az"/><use transform="matrix(0.05,0,0,0.05,72.4,0)" xlink:href="#aH"/><use transform="matrix(0.05,0,0,0.05,78.35000000000001,0)" xlink:href="#aI"/><use transform="matrix(0.05,0,0,0.05,84.30000000000001,0)" xlink:href="#av"/><use transform="matrix(0.05,0,0,0.05,89.30000000000001,0)" xlink:href="#aw"/><use transform="matrix(0.05,0,0,0.05,101.30000000000001,0)" xlink:href="#at"/><use transform="matrix(0.05,0,0,0.05,106.30000000000001,0)" xlink:href="#ax"/><use transform="matrix(0.05,0,0,0.05,112.25,0)" xlink:href="#ay"/><use transform="matrix(0.05,0,0,0.05,116.2,0)" xlink:href="#an"/><use transform="matrix(0.05,0,0,0.05,126.2,0)" xlink:href="#az"/></g><path fill="#333" d="M127-220V0H93v-220H8v-28h204v28h-85" id="aM"/><g id="q"><use transform="matrix(0.05,0,0,0.05,0,0)" xlink:href="#aF"/><use transform="matrix(0.05,0,0,0.05,10.5,0)" xlink:href="#au"/><use transform="matrix(0.05,0,0,0.05,19.5,0)" xlink:href="#as"/><use transform="matrix(0.05,0,0,0.05,29.5,0)" xlink:href="#ap"/><use transform="matrix(0.05,0,0,0.05,44.45,0)" xlink:href="#aE"/><use transform="matrix(0.05,0,0,0.05,54.45,0)" xlink:href="#ao"/><use transform="matrix(0.05,0,0,0.05,64.45,0)" xlink:href="#ax"/><use transform="matrix(0.05,0,0,0.05,70.4,0)" xlink:href="#aq"/><use transform="matrix(0.05,0,0,0.05,80.4,0)" xlink:href="#aM"/><use transform="matrix(0.05,0,0,0.05,89.35000000000001,0)" xlink:href="#as"/><use transform="matrix(0.05,0,0,0.05,99.35000000000001,0)" xlink:href="#aH"/><use transform="matrix(0.05,0,0,0.05,105.30000000000001,0)" xlink:href="#ar"/><use transform="matrix(0.05,0,0,0.05,118.25,0)" xlink:href="#as"/><use transform="matrix(0.05,0,0,0.05,128.25,0)" xlink:href="#an"/><use transform="matrix(0.05,0,0,0.05,138.25,0)" xlink:href="#at"/><use transform="matrix(0.05,0,0,0.05,143.25,0)" xlink:href="#ao"/><use transform="matrix(0.05,0,0,0.05,153.25,0)" xlink:href="#au"/><use transform="matrix(0.05,0,0,0.05,162.25,0)" xlink:href="#at"/></g><g id="r"><use transform="matrix(0.05,0,0,0.05,0,0)" xlink:href="#as"/><use transform="matrix(0.05,0,0,0.05,10,0)" xlink:href="#aI"/><use transform="matrix(0.05,0,0,0.05,15.949999999999998,0)" xlink:href="#av"/><use transform="matrix(0.05,0,0,0.05,20.95,0)" xlink:href="#ay"/><use transform="matrix(0.05,0,0,0.05,24.9,0)" xlink:href="#an"/><use transform="matrix(0.05,0,0,0.05,34.9,0)" xlink:href="#at"/></g><path fill="#333" d="M183 0l-10-63H79L44 0H-7l138-248h61L234 0h-51zm-14-102l-15-108c-16 38-36 73-55 108h70" id="aN"/><path fill="#333" d="M45-171c29-32 103-29 114 14 2-11 5-23 8-33h47L176-2c-3 70-92 96-155 64C9 56 1 42-1 25l50-5c2 28 48 27 63 11 13-13 20-45 21-66-13 20-30 35-62 36-87 3-60-134-26-172zM94-35c41-3 55-43 55-86 0-24-12-39-35-39-43 0-51 48-51 90 0 22 9 37 31 35" id="aO"/><path fill="#333" d="M114-194c63-2 87 48 72 110H63c-3 28 1 55 31 54 21-1 32-13 37-29l44 13C160-14 137 4 91 4 41 4 11-22 11-73c0-71 33-119 103-121zm30 77c14-47-50-61-67-22-3 6-6 13-8 22h75" id="aP"/><path fill="#333" d="M132-28C118-9 101 4 69 4 30 4 10-23 10-62c0-70 24-129 92-132 31-1 47 14 56 35l19-102h49L179 0h-49zM62-69c0 22 7 39 29 39 45-2 54-45 57-90 2-27-10-40-33-40-44 0-53 48-53 91" id="aQ"/><g id="s"><use transform="matrix(0.05,0,0,0.05,0,0)" xlink:href="#ag"/><use transform="matrix(0.05,0,0,0.05,12.950000000000001,0)" xlink:href="#ah"/><use transform="matrix(0.05,0,0,0.05,23.900000000000002,0)" xlink:href="#ai"/><use transform="matrix(0.05,0,0,0.05,34.85,0)" xlink:href="#aj"/><use transform="matrix(0.05,0,0,0.05,40.800000000000004,0)" xlink:href="#ak"/><use transform="matrix(0.05,0,0,0.05,50.800000000000004,0)" xlink:href="#aj"/><use transform="matrix(0.05,0,0,0.05,56.75,0)" xlink:href="#al"/><use transform="matrix(0.05,0,0,0.05,66.75,0)" xlink:href="#aN"/><use transform="matrix(0.05,0,0,0.05,79.7,0)" xlink:href="#aO"/><use transform="matrix(0.05,0,0,0.05,90.65,0)" xlink:href="#aP"/><use transform="matrix(0.05,0,0,0.05,100.65,0)" xlink:href="#ai"/><use transform="matrix(0.05,0,0,0.05,111.60000000000001,0)" xlink:href="#aQ"/><use transform="matrix(0.05,0,0,0.05,122.55000000000001,0)" xlink:href="#ak"/></g><path fill="#333" d="M18-100v-36l175-74v27L42-118l151 64v27" id="aR"/><path fill="#333" d="M125-24c46 0 70-25 89-51l25 16C214-24 183 4 123 4 8 4-5-146 60-208c32-50 158-61 191-5 5 7 9 14 11 22l-32 10c-9-28-33-43-69-43-74 0-108 51-108 125 0 46 24 75 72 75" id="aS"/><path fill="#333" d="M30-147c31-64 166-65 159 27C183-49 158 1 86 4 9 8 1-88 30-147zM88-20c53 0 68-48 68-100 0-31-11-51-44-50-52 1-68 46-68 97 0 32 13 53 44 53" id="aT"/><path fill="#333" d="M67-158c22-48 132-52 116 29L158 0h-32l25-140c3-38-53-32-70-12C52-117 51-52 38 0H6l36-190h30" id="aU"/><path fill="#333" d="M51-54c-9 22 5 41 31 30L79-1C43 14 10-4 19-52l22-115H19l5-23h22l19-43h21l-9 43h35l-4 23H73" id="aV"/><path fill="#333" d="M165-48c-4 18 1 34 23 27l-3 20c-29 8-62 0-52-35h-2C116-14 99 4 63 4 30 4 8-16 8-49c0-68 71-67 138-67 10-26 0-56-31-54-26 1-42 9-47 31l-32-5c8-67 160-71 144 15-5 28-9 54-15 81zM42-50c3 52 80 24 89-6 7-12 7-24 11-38-47 1-103-4-100 44" id="aW"/><path fill="#333" d="M44-68c0 29 11 47 38 47 30 0 42-19 51-41l28 9C148-21 126 4 82 4 31 4 10-29 12-85c3-77 74-140 146-93 12 8 15 23 18 40l-31 5c-1-22-13-36-36-36-52 0-65 49-65 101" id="aX"/><path fill="#333" d="M18-27v-27l151-64-151-65v-27l175 74v36" id="aY"/><g id="t"><use transform="matrix(0.05,0,0,0.05,0,0)" xlink:href="#au"/><use transform="matrix(0.05,0,0,0.05,9,0)" xlink:href="#as"/><use transform="matrix(0.05,0,0,0.05,19,0)" xlink:href="#an"/><use transform="matrix(0.05,0,0,0.05,29,0)" xlink:href="#at"/><use transform="matrix(0.05,0,0,0.05,34,0)" xlink:href="#ao"/><use transform="matrix(0.05,0,0,0.05,44,0)" xlink:href="#at"/><use transform="matrix(0.05,0,0,0.05,49,0)" xlink:href="#au"/><use transform="matrix(0.05,0,0,0.05,58,0)" xlink:href="#aD"/><use transform="matrix(0.05,0,0,0.05,67,0)" xlink:href="#av"/><use transform="matrix(0.05,0,0,0.05,72,0)" xlink:href="#aw"/><use transform="matrix(0.05,0,0,0.05,84,0)" xlink:href="#aq"/><use transform="matrix(0.05,0,0,0.05,94,0)" xlink:href="#at"/><use transform="matrix(0.05,0,0,0.05,99,0)" xlink:href="#aR"/><use transform="matrix(0.05,0,0,0.05,109.5,0)" xlink:href="#aS"/><use transform="matrix(0.05,0,0,0.05,122.45,0)" xlink:href="#aT"/><use transform="matrix(0.05,0,0,0.05,132.45,0)" xlink:href="#aU"/><use transform="matrix(0.05,0,0,0.05,142.45,0)" xlink:href="#aV"/><use transform="matrix(0.05,0,0,0.05,147.45,0)" xlink:href="#aW"/><use transform="matrix(0.05,0,0,0.05,157.45,0)" xlink:href="#aX"/><use transform="matrix(0.05,0,0,0.05,166.45,0)" xlink:href="#aV"/><use transform="matrix(0.05,0,0,0.05,171.45,0)" xlink:href="#aY"/></g><path fill="#333" d="M205 0l-28-72H64L36 0H1l101-248h38L239 0h-34zm-38-99l-47-123c-12 45-31 82-46 123h93" id="aZ"/><g id="u"><use transform="matrix(0.05,0,0,0.05,0,0)" xlink:href="#ar"/><use transform="matrix(0.05,0,0,0.05,12.950000000000001,0)" xlink:href="#as"/><use transform="matrix(0.05,0,0,0.05,22.950000000000003,0)" xlink:href="#an"/><use transform="matrix(0.05,0,0,0.05,32.95,0)" xlink:href="#at"/><use transform="matrix(0.05,0,0,0.05,37.95,0)" xlink:href="#ao"/><use transform="matrix(0.05,0,0,0.05,47.95,0)" xlink:href="#au"/><use transform="matrix(0.05,0,0,0.05,56.95,0)" xlink:href="#at"/><use transform="matrix(0.05,0,0,0.05,61.95,0)" xlink:href="#aZ"/><use transform="matrix(0.05,0,0,0.05,73.95,0)" xlink:href="#az"/><use transform="matrix(0.05,0,0,0.05,83.95,0)" xlink:href="#aq"/><use transform="matrix(0.05,0,0,0.05,93.95,0)" xlink:href="#an"/><use transform="matrix(0.05,0,0,0.05,103.95,0)" xlink:href="#aC"/><use transform="matrix(0.05,0,0,0.05,113.95,0)" xlink:href="#ao"/><use transform="matrix(0.05,0,0,0.05,123.95,0)" xlink:href="#aH"/><use transform="matrix(0.05,0,0,0.05,129.9,0)" xlink:href="#aI"/><use transform="matrix(0.05,0,0,0.05,135.85,0)" xlink:href="#av"/><use transform="matrix(0.05,0,0,0.05,140.85,0)" xlink:href="#aL"/><use transform="matrix(0.05,0,0,0.05,149.85,0)" xlink:href="#as"/><use transform="matrix(0.05,0,0,0.05,159.85,0)" xlink:href="#ay"/><use transform="matrix(0.05,0,0,0.05,163.79999999999998,0)" xlink:href="#aC"/></g><g id="v"><use transform="matrix(0.05,0,0,0.05,0,0)" xlink:href="#aF"/><use transform="matrix(0.05,0,0,0.05,10.5,0)" xlink:href="#ao"/><use transform="matrix(0.05,0,0,0.05,20.5,0)" xlink:href="#aC"/><use transform="matrix(0.05,0,0,0.05,30.5,0)" xlink:href="#aC"/><use transform="matrix(0.05,0,0,0.05,40.5,0)" xlink:href="#ar"/><use transform="matrix(0.05,0,0,0.05,53.45,0)" xlink:href="#as"/><use transform="matrix(0.05,0,0,0.05,63.45,0)" xlink:href="#an"/><use transform="matrix(0.05,0,0,0.05,73.45,0)" xlink:href="#at"/><use transform="matrix(0.05,0,0,0.05,78.45,0)" xlink:href="#ao"/><use transform="matrix(0.05,0,0,0.05,88.45,0)" xlink:href="#au"/><use transform="matrix(0.05,0,0,0.05,97.45,0)" xlink:href="#at"/><use transform="matrix(0.05,0,0,0.05,102.45,0)" xlink:href="#aH"/><use transform="matrix(0.05,0,0,0.05,108.4,0)" xlink:href="#aw"/><use transform="matrix(0.05,0,0,0.05,120.4,0)" xlink:href="#at"/><use transform="matrix(0.05,0,0,0.05,125.4,0)" xlink:href="#ax"/><use transform="matrix(0.05,0,0,0.05,131.35,0)" xlink:href="#ay"/><use transform="matrix(0.05,0,0,0.05,135.29999999999998,0)" xlink:href="#an"/><use transform="matrix(0.05,0,0,0.05,145.29999999999998,0)" xlink:href="#az"/></g><path fill="#333" d="M68-38c1 34 0 65-14 84H32c9-13 17-26 17-46H33v-38h35" id="ba"/><g id="w"><use transform="matrix(0.05,0,0,0.05,0,0)" xlink:href="#an"/><use transform="matrix(0.05,0,0,0.05,10,0)" xlink:href="#ao"/><use transform="matrix(0.05,0,0,0.05,20,0)" xlink:href="#ap"/><use transform="matrix(0.05,0,0,0.05,34.95,0)" xlink:href="#aq"/><use transform="matrix(0.05,0,0,0.05,44.95,0)" xlink:href="#ba"/></g><g id="x"><use transform="matrix(0.05,0,0,0.05,0,0)" xlink:href="#ay"/><use transform="matrix(0.05,0,0,0.05,3.95,0)" xlink:href="#an"/><use transform="matrix(0.05,0,0,0.05,13.949999999999998,0)" xlink:href="#at"/></g><g id="y"><use transform="matrix(0.05,0,0,0.05,0,0)" xlink:href="#an"/><use transform="matrix(0.05,0,0,0.05,10,0)" xlink:href="#aA"/><use transform="matrix(0.05,0,0,0.05,20,0)" xlink:href="#ap"/><use transform="matrix(0.05,0,0,0.05,34.95,0)" xlink:href="#aB"/><use transform="matrix(0.05,0,0,0.05,44.95,0)" xlink:href="#aq"/><use transform="matrix(0.05,0,0,0.05,54.95,0)" xlink:href="#ax"/><use transform="matrix(0.05,0,0,0.05,60.900000000000006,0)" xlink:href="#aI"/><use transform="matrix(0.05,0,0,0.05,66.85000000000001,0)" xlink:href="#av"/><use transform="matrix(0.05,0,0,0.05,71.85000000000001,0)" xlink:href="#aL"/><use transform="matrix(0.05,0,0,0.05,80.85000000000001,0)" xlink:href="#as"/><use transform="matrix(0.05,0,0,0.05,90.85000000000001,0)" xlink:href="#ay"/><use transform="matrix(0.05,0,0,0.05,94.80000000000001,0)" xlink:href="#aC"/></g><g id="z"><use transform="matrix(0.05,0,0,0.05,0,0)" xlink:href="#an"/><use transform="matrix(0.05,0,0,0.05,10,0)" xlink:href="#aA"/><use transform="matrix(0.05,0,0,0.05,20,0)" xlink:href="#ap"/><use transform="matrix(0.05,0,0,0.05,34.95,0)" xlink:href="#aB"/><use transform="matrix(0.05,0,0,0.05,44.95,0)" xlink:href="#aq"/><use transform="matrix(0.05,0,0,0.05,54.95,0)" xlink:href="#ax"/><use transform="matrix(0.05,0,0,0.05,59.900000000000006,0)" xlink:href="#ba"/><use transform="matrix(0.05,0,0,0.05,64.9,0)" xlink:href="#aw"/><use transform="matrix(0.05,0,0,0.05,76.9,0)" xlink:href="#at"/><use transform="matrix(0.05,0,0,0.05,81.9,0)" xlink:href="#ax"/><use transform="matrix(0.05,0,0,0.05,87.85000000000001,0)" xlink:href="#ay"/><use transform="matrix(0.05,0,0,0.05,91.80000000000001,0)" xlink:href="#an"/><use transform="matrix(0.05,0,0,0.05,101.80000000000001,0)" xlink:href="#az"/></g><g id="A"><use transform="matrix(0.05,0,0,0.05,0,0)" xlink:href="#aC"/><use transform="matrix(0.05,0,0,0.05,10,0)" xlink:href="#aq"/><use transform="matrix(0.05,0,0,0.05,20,0)" xlink:href="#aD"/><use transform="matrix(0.05,0,0,0.05,29,0)" xlink:href="#au"/><use transform="matrix(0.05,0,0,0.05,38,0)" xlink:href="#ax"/><use transform="matrix(0.05,0,0,0.05,43.95,0)" xlink:href="#ay"/><use transform="matrix(0.05,0,0,0.05,47.900000000000006,0)" xlink:href="#aE"/><use transform="matrix(0.05,0,0,0.05,57.900000000000006,0)" xlink:href="#at"/><use transform="matrix(0.05,0,0,0.05,62.900000000000006,0)" xlink:href="#ay"/><use transform="matrix(0.05,0,0,0.05,66.85000000000001,0)" xlink:href="#as"/><use transform="matrix(0.05,0,0,0.05,76.85000000000001,0)" xlink:href="#an"/><use transform="matrix(0.05,0,0,0.05,86.85000000000001,0)" xlink:href="#aI"/></g><g id="B"><use transform="matrix(0.05,0,0,0.05,0,0)" xlink:href="#aF"/><use transform="matrix(0.05,0,0,0.05,10.5,0)" xlink:href="#ax"/><use transform="matrix(0.05,0,0,0.05,16.45,0)" xlink:href="#aq"/><use transform="matrix(0.05,0,0,0.05,26.450000000000003,0)" xlink:href="#ap"/><use transform="matrix(0.05,0,0,0.05,41.4,0)" xlink:href="#as"/><use transform="matrix(0.05,0,0,0.05,51.400000000000006,0)" xlink:href="#aL"/><use transform="matrix(0.05,0,0,0.05,60.400000000000006,0)" xlink:href="#aq"/><use transform="matrix(0.05,0,0,0.05,70.4,0)" xlink:href="#ar"/><use transform="matrix(0.05,0,0,0.05,83.35000000000001,0)" xlink:href="#as"/><use transform="matrix(0.05,0,0,0.05,93.35000000000001,0)" xlink:href="#an"/><use transform="matrix(0.05,0,0,0.05,103.35000000000001,0)" xlink:href="#at"/><use transform="matrix(0.05,0,0,0.05,108.35000000000001,0)" xlink:href="#ao"/><use transform="matrix(0.05,0,0,0.05,118.35000000000001,0)" xlink:href="#au"/><use transform="matrix(0.05,0,0,0.05,127.35000000000001,0)" xlink:href="#at"/><use transform="matrix(0.05,0,0,0.05,132.35000000000002,0)" xlink:href="#aH"/><use transform="matrix(0.05,0,0,0.05,138.3,0)" xlink:href="#aw"/><use transform="matrix(0.05,0,0,0.05,150.3,0)" xlink:href="#at"/><use transform="matrix(0.05,0,0,0.05,155.3,0)" xlink:href="#ax"/><use transform="matrix(0.05,0,0,0.05,161.25,0)" xlink:href="#ay"/><use transform="matrix(0.05,0,0,0.05,165.2,0)" xlink:href="#an"/><use transform="matrix(0.05,0,0,0.05,175.2,0)" xlink:href="#az"/></g><g id="C"><use transform="matrix(0.05,0,0,0.05,0,0)" xlink:href="#aF"/><use transform="matrix(0.05,0,0,0.05,10.5,0)" xlink:href="#ax"/><use transform="matrix(0.05,0,0,0.05,16.45,0)" xlink:href="#aq"/><use transform="matrix(0.05,0,0,0.05,26.450000000000003,0)" xlink:href="#ap"/><use transform="matrix(0.05,0,0,0.05,41.4,0)" xlink:href="#as"/><use transform="matrix(0.05,0,0,0.05,51.400000000000006,0)" xlink:href="#aL"/><use transform="matrix(0.05,0,0,0.05,60.400000000000006,0)" xlink:href="#aq"/><use transform="matrix(0.05,0,0,0.05,70.4,0)" xlink:href="#ar"/><use transform="matrix(0.05,0,0,0.05,83.35000000000001,0)" xlink:href="#as"/><use transform="matrix(0.05,0,0,0.05,93.35000000000001,0)" xlink:href="#an"/><use transform="matrix(0.05,0,0,0.05,103.35000000000001,0)" xlink:href="#at"/><use transform="matrix(0.05,0,0,0.05,108.35000000000001,0)" xlink:href="#ao"/><use transform="matrix(0.05,0,0,0.05,118.35000000000001,0)" xlink:href="#au"/><use transform="matrix(0.05,0,0,0.05,127.35000000000001,0)" xlink:href="#at"/><use transform="matrix(0.05,0,0,0.05,132.35000000000002,0)" xlink:href="#aH"/><use transform="matrix(0.05,0,0,0.05,138.3,0)" xlink:href="#aw"/><use transform="matrix(0.05,0,0,0.05,150.3,0)" xlink:href="#aq"/><use transform="matrix(0.05,0,0,0.05,160.3,0)" xlink:href="#at"/><use transform="matrix(0.05,0,0,0.05,165.3,0)" xlink:href="#aR"/><use transform="matrix(0.05,0,0,0.05,175.8,0)" xlink:href="#ar"/><use transform="matrix(0.05,0,0,0.05,188.75,0)" xlink:href="#as"/><use transform="matrix(0.05,0,0,0.05,198.75,0)" xlink:href="#an"/><use transform="matrix(0.05,0,0,0.05,208.75,0)" xlink:href="#at"/><use transform="matrix(0.05,0,0,0.05,213.75,0)" xlink:href="#ao"/><use transform="matrix(0.05,0,0,0.05,223.75,0)" xlink:href="#au"/><use transform="matrix(0.05,0,0,0.05,232.75,0)" xlink:href="#at"/><use transform="matrix(0.05,0,0,0.05,237.75,0)" xlink:href="#aY"/><use transform="matrix(0.05,0,0,0.05,248.25,0)" xlink:href="#aI"/><use transform="matrix(0.05,0,0,0.05,254.19999999999996,0)" xlink:href="#av"/><use transform="matrix(0.05,0,0,0.05,259.2,0)" xlink:href="#aL"/><use transform="matrix(0.05,0,0,0.05,268.2,0)" xlink:href="#as"/><use transform="matrix(0.05,0,0,0.05,278.2,0)" xlink:href="#ay"/><use transform="matrix(0.05,0,0,0.05,282.15,0)" xlink:href="#aC"/></g><path fill="#333" d="M206 0h-36l-40-164L89 0H53L-1-190h32L70-26l43-164h34l41 164 42-164h31" id="bb"/><g id="D"><use transform="matrix(0.05,0,0,0.05,0,0)" xlink:href="#aF"/><use transform="matrix(0.05,0,0,0.05,10.5,0)" xlink:href="#aL"/><use transform="matrix(0.05,0,0,0.05,19.5,0)" xlink:href="#ay"/><use transform="matrix(0.05,0,0,0.05,23.45,0)" xlink:href="#aq"/><use transform="matrix(0.05,0,0,0.05,33.45,0)" xlink:href="#bb"/><use transform="matrix(0.05,0,0,0.05,46.400000000000006,0)" xlink:href="#ar"/><use transform="matrix(0.05,0,0,0.05,59.35,0)" xlink:href="#as"/><use transform="matrix(0.05,0,0,0.05,69.35000000000001,0)" xlink:href="#an"/><use transform="matrix(0.05,0,0,0.05,79.35000000000001,0)" xlink:href="#at"/><use transform="matrix(0.05,0,0,0.05,84.35000000000001,0)" xlink:href="#ao"/><use transform="matrix(0.05,0,0,0.05,94.35000000000001,0)" xlink:href="#au"/><use transform="matrix(0.05,0,0,0.05,103.35000000000001,0)" xlink:href="#at"/><use transform="matrix(0.05,0,0,0.05,108.35000000000001,0)" xlink:href="#aZ"/><use transform="matrix(0.05,0,0,0.05,120.35000000000001,0)" xlink:href="#az"/><use transform="matrix(0.05,0,0,0.05,130.35000000000002,0)" xlink:href="#aq"/><use transform="matrix(0.05,0,0,0.05,140.35000000000002,0)" xlink:href="#an"/><use transform="matrix(0.05,0,0,0.05,150.35000000000002,0)" xlink:href="#aC"/><use transform="matrix(0.05,0,0,0.05,160.35000000000002,0)" xlink:href="#ao"/><use transform="matrix(0.05,0,0,0.05,170.35000000000002,0)" xlink:href="#aH"/><use transform="matrix(0.05,0,0,0.05,176.3,0)" xlink:href="#aI"/><use transform="matrix(0.05,0,0,0.05,182.25,0)" xlink:href="#av"/><use transform="matrix(0.05,0,0,0.05,187.25,0)" xlink:href="#aw"/><use transform="matrix(0.05,0,0,0.05,199.25,0)" xlink:href="#aq"/><use transform="matrix(0.05,0,0,0.05,209.25,0)" xlink:href="#at"/><use transform="matrix(0.05,0,0,0.05,214.25,0)" xlink:href="#aR"/><use transform="matrix(0.05,0,0,0.05,224.75,0)" xlink:href="#ar"/><use transform="matrix(0.05,0,0,0.05,237.69999999999996,0)" xlink:href="#as"/><use transform="matrix(0.05,0,0,0.05,247.69999999999996,0)" xlink:href="#an"/><use transform="matrix(0.05,0,0,0.05,257.7,0)" xlink:href="#at"/><use transform="matrix(0.05,0,0,0.05,262.7,0)" xlink:href="#ao"/><use transform="matrix(0.05,0,0,0.05,272.7,0)" xlink:href="#au"/><use transform="matrix(0.05,0,0,0.05,281.7,0)" xlink:href="#at"/><use transform="matrix(0.05,0,0,0.05,286.7,0)" xlink:href="#aY"/></g><path fill="#333" d="M6 0l51-261h49L55 0H6" id="bc"/><g id="E"><use transform="matrix(0.05,0,0,0.05,0,0)" xlink:href="#ag"/><use transform="matrix(0.05,0,0,0.05,12.950000000000001,0)" xlink:href="#ak"/><use transform="matrix(0.05,0,0,0.05,22.950000000000003,0)" xlink:href="#bc"/><use transform="matrix(0.05,0,0,0.05,27.950000000000003,0)" xlink:href="#bc"/></g><path fill="#333" d="M24 0v-261h32V0H24" id="bd"/><g id="F"><use transform="matrix(0.05,0,0,0.05,0,0)" xlink:href="#aF"/><use transform="matrix(0.05,0,0,0.05,10.5,0)" xlink:href="#ay"/><use transform="matrix(0.05,0,0,0.05,14.449999999999998,0)" xlink:href="#an"/><use transform="matrix(0.05,0,0,0.05,24.45,0)" xlink:href="#ay"/><use transform="matrix(0.05,0,0,0.05,28.399999999999995,0)" xlink:href="#at"/><use transform="matrix(0.05,0,0,0.05,33.4,0)" xlink:href="#ar"/><use transform="matrix(0.05,0,0,0.05,46.35,0)" xlink:href="#ao"/><use transform="matrix(0.05,0,0,0.05,56.35,0)" xlink:href="#bd"/><use transform="matrix(0.05,0,0,0.05,60.300000000000004,0)" xlink:href="#bd"/><use transform="matrix(0.05,0,0,0.05,64.25,0)" xlink:href="#aH"/><use transform="matrix(0.05,0,0,0.05,70.2,0)" xlink:href="#ay"/><use transform="matrix(0.05,0,0,0.05,74.15,0)" xlink:href="#an"/><use transform="matrix(0.05,0,0,0.05,84.15,0)" xlink:href="#at"/></g><path fill="#333" d="M140-251c81 0 123 46 123 126C263-46 219 4 140 4 59 4 17-45 17-125s42-126 123-126zm0 227c63 0 89-41 89-101s-29-99-89-99c-61 0-89 39-89 99S79-25 140-24" id="be"/><path fill="#333" d="M101-234c-31-9-42 10-38 44h38v23H63V0H32v-167H5v-23h27c-7-52 17-82 69-68v24" id="bf"/><g id="G"><use transform="matrix(0.05,0,0,0.05,0,0)" xlink:href="#aF"/><use transform="matrix(0.05,0,0,0.05,10.5,0)" xlink:href="#aq"/><use transform="matrix(0.05,0,0,0.05,20.5,0)" xlink:href="#an"/><use transform="matrix(0.05,0,0,0.05,30.5,0)" xlink:href="#aC"/><use transform="matrix(0.05,0,0,0.05,40.5,0)" xlink:href="#be"/><use transform="matrix(0.05,0,0,0.05,54.5,0)" xlink:href="#bf"/><use transform="matrix(0.05,0,0,0.05,59.5,0)" xlink:href="#ar"/><use transform="matrix(0.05,0,0,0.05,72.45,0)" xlink:href="#ao"/><use transform="matrix(0.05,0,0,0.05,82.45,0)" xlink:href="#bd"/><use transform="matrix(0.05,0,0,0.05,86.4,0)" xlink:href="#bd"/><use transform="matrix(0.05,0,0,0.05,90.35000000000001,0)" xlink:href="#aH"/><use transform="matrix(0.05,0,0,0.05,96.30000000000001,0)" xlink:href="#aI"/><use transform="matrix(0.05,0,0,0.05,102.25000000000001,0)" xlink:href="#av"/><use transform="matrix(0.05,0,0,0.05,107.25,0)" xlink:href="#aL"/><use transform="matrix(0.05,0,0,0.05,116.25,0)" xlink:href="#as"/><use transform="matrix(0.05,0,0,0.05,126.25,0)" xlink:href="#ay"/><use transform="matrix(0.05,0,0,0.05,130.20000000000002,0)" xlink:href="#aC"/></g><path fill="#333" d="M212 0l43-212L151 0h-37L90-212C82-137 65-70 52 0H6l48-248h70l20 187 93-187h69L258 0h-46" id="bg"/><path fill="#333" d="M69 3c-96 0-34-126-28-193h49L65-57c6 42 62 18 71-6 14-38 17-86 28-127h50L178 0h-47c0-11 4-26 3-33-14 20-30 37-65 36" id="bh"/><path fill="#333" d="M144-137c-1-29-70-35-71-2 16 41 103 10 103 80C176 9 79 16 32-9 18-17 9-31 4-48l44-6c3 32 80 36 82 1-15-42-103-11-103-82 0-77 157-79 161-8" id="bi"/><path fill="#333" d="M50-224l7-37h49l-7 37H50zM6 0l37-190h49L55 0H6" id="bj"/><path fill="#333" d="M98-208l-15 77h118l-8 40H76L58 0H6l48-248h174l-8 40H98" id="bk"/><g id="H"><use transform="matrix(0.05,0,0,0.05,0,0)" xlink:href="#bg"/><use transform="matrix(0.05,0,0,0.05,14.950000000000001,0)" xlink:href="#bh"/><use transform="matrix(0.05,0,0,0.05,25.900000000000002,0)" xlink:href="#bi"/><use transform="matrix(0.05,0,0,0.05,35.900000000000006,0)" xlink:href="#bj"/><use transform="matrix(0.05,0,0,0.05,40.900000000000006,0)" xlink:href="#al"/><use transform="matrix(0.05,0,0,0.05,50.900000000000006,0)" xlink:href="#bk"/><use transform="matrix(0.05,0,0,0.05,61.85,0)" xlink:href="#bj"/><use transform="matrix(0.05,0,0,0.05,66.85000000000001,0)" xlink:href="#bc"/><use transform="matrix(0.05,0,0,0.05,71.85000000000001,0)" xlink:href="#aP"/></g><g id="I"><use transform="matrix(0.05,0,0,0.05,0,0)" xlink:href="#ap"/><use transform="matrix(0.05,0,0,0.05,14.950000000000001,0)" xlink:href="#aA"/><use transform="matrix(0.05,0,0,0.05,24.950000000000003,0)" xlink:href="#aD"/><use transform="matrix(0.05,0,0,0.05,33.95,0)" xlink:href="#ay"/><use transform="matrix(0.05,0,0,0.05,37.900000000000006,0)" xlink:href="#au"/><use transform="matrix(0.05,0,0,0.05,46.900000000000006,0)" xlink:href="#aG"/><use transform="matrix(0.05,0,0,0.05,59.85,0)" xlink:href="#ao"/><use transform="matrix(0.05,0,0,0.05,69.85000000000001,0)" xlink:href="#ap"/><use transform="matrix(0.05,0,0,0.05,84.80000000000001,0)" xlink:href="#aq"/><use transform="matrix(0.05,0,0,0.05,94.80000000000001,0)" xlink:href="#av"/><use transform="matrix(0.05,0,0,0.05,99.80000000000001,0)" xlink:href="#aw"/><use transform="matrix(0.05,0,0,0.05,111.80000000000001,0)" xlink:href="#at"/><use transform="matrix(0.05,0,0,0.05,116.80000000000001,0)" xlink:href="#ax"/><use transform="matrix(0.05,0,0,0.05,122.75,0)" xlink:href="#ay"/><use transform="matrix(0.05,0,0,0.05,126.7,0)" xlink:href="#an"/><use transform="matrix(0.05,0,0,0.05,136.70000000000002,0)" xlink:href="#az"/></g><path fill="#333" d="M63-220v92h138v28H63V0H30v-248h175v28H63" id="bl"/><path fill="#333" d="M30-248c87 1 191-15 191 75 0 78-77 80-158 76V0H30v-248zm33 125c57 0 124 11 124-50 0-59-68-47-124-48v98" id="bm"/><path fill="#333" d="M106-169C34-169 62-67 57 0H25v-261h32l-1 103c12-21 28-36 61-36 89 0 53 116 60 194h-32v-121c2-32-8-49-39-48" id="bn"/><g id="J"><use transform="matrix(0.05,0,0,0.05,0,0)" xlink:href="#ap"/><use transform="matrix(0.05,0,0,0.05,14.950000000000001,0)" xlink:href="#aA"/><use transform="matrix(0.05,0,0,0.05,24.950000000000003,0)" xlink:href="#aD"/><use transform="matrix(0.05,0,0,0.05,33.95,0)" xlink:href="#ay"/><use transform="matrix(0.05,0,0,0.05,37.900000000000006,0)" xlink:href="#au"/><use transform="matrix(0.05,0,0,0.05,46.900000000000006,0)" xlink:href="#bl"/><use transform="matrix(0.05,0,0,0.05,57.85,0)" xlink:href="#ay"/><use transform="matrix(0.05,0,0,0.05,61.80000000000001,0)" xlink:href="#bd"/><use transform="matrix(0.05,0,0,0.05,65.75000000000001,0)" xlink:href="#aq"/><use transform="matrix(0.05,0,0,0.05,75.75000000000001,0)" xlink:href="#bm"/><use transform="matrix(0.05,0,0,0.05,87.75000000000001,0)" xlink:href="#ao"/><use transform="matrix(0.05,0,0,0.05,97.75000000000001,0)" xlink:href="#at"/><use transform="matrix(0.05,0,0,0.05,102.75,0)" xlink:href="#bn"/><use transform="matrix(0.05,0,0,0.05,112.75,0)" xlink:href="#av"/><use transform="matrix(0.05,0,0,0.05,117.75,0)" xlink:href="#aw"/><use transform="matrix(0.05,0,0,0.05,129.75,0)" xlink:href="#at"/><use transform="matrix(0.05,0,0,0.05,134.75,0)" xlink:href="#ax"/><use transform="matrix(0.05,0,0,0.05,140.7,0)" xlink:href="#ay"/><use transform="matrix(0.05,0,0,0.05,144.64999999999998,0)" xlink:href="#an"/><use transform="matrix(0.05,0,0,0.05,154.64999999999998,0)" xlink:href="#az"/></g><g id="K"><use transform="matrix(0.05,0,0,0.05,0,0)" xlink:href="#ap"/><use transform="matrix(0.05,0,0,0.05,14.950000000000001,0)" xlink:href="#aA"/><use transform="matrix(0.05,0,0,0.05,24.950000000000003,0)" xlink:href="#aD"/><use transform="matrix(0.05,0,0,0.05,33.95,0)" xlink:href="#ay"/><use transform="matrix(0.05,0,0,0.05,37.900000000000006,0)" xlink:href="#au"/><use transform="matrix(0.05,0,0,0.05,46.900000000000006,0)" xlink:href="#bl"/><use transform="matrix(0.05,0,0,0.05,57.85,0)" xlink:href="#ay"/><use transform="matrix(0.05,0,0,0.05,61.80000000000001,0)" xlink:href="#bd"/><use transform="matrix(0.05,0,0,0.05,65.75000000000001,0)" xlink:href="#aq"/><use transform="matrix(0.05,0,0,0.05,75.75000000000001,0)" xlink:href="#aH"/><use transform="matrix(0.05,0,0,0.05,81.70000000000002,0)" xlink:href="#aw"/><use transform="matrix(0.05,0,0,0.05,93.70000000000002,0)" xlink:href="#at"/><use transform="matrix(0.05,0,0,0.05,98.70000000000002,0)" xlink:href="#ax"/><use transform="matrix(0.05,0,0,0.05,104.65000000000003,0)" xlink:href="#ay"/><use transform="matrix(0.05,0,0,0.05,108.60000000000002,0)" xlink:href="#an"/><use transform="matrix(0.05,0,0,0.05,118.60000000000002,0)" xlink:href="#az"/></g><g id="L"><use transform="matrix(0.05,0,0,0.05,0,0)" xlink:href="#aE"/><use transform="matrix(0.05,0,0,0.05,10,0)" xlink:href="#ao"/><use transform="matrix(0.05,0,0,0.05,20,0)" xlink:href="#at"/><use transform="matrix(0.05,0,0,0.05,25,0)" xlink:href="#bn"/><use transform="matrix(0.05,0,0,0.05,35,0)" xlink:href="#aI"/><use transform="matrix(0.05,0,0,0.05,40.95,0)" xlink:href="#av"/><use transform="matrix(0.05,0,0,0.05,45.95,0)" xlink:href="#aL"/><use transform="matrix(0.05,0,0,0.05,54.95,0)" xlink:href="#as"/><use transform="matrix(0.05,0,0,0.05,64.95,0)" xlink:href="#ay"/><use transform="matrix(0.05,0,0,0.05,68.9,0)" xlink:href="#aC"/></g><path fill="#333" d="M240 0l2-218c-23 76-54 145-80 218h-23L58-218 59 0H30v-248h44l77 211c21-75 51-140 76-211h43V0h-30" id="bo"/><g id="M"><use transform="matrix(0.05,0,0,0.05,0,0)" xlink:href="#az"/><use transform="matrix(0.05,0,0,0.05,10,0)" xlink:href="#aq"/><use transform="matrix(0.05,0,0,0.05,20,0)" xlink:href="#at"/><use transform="matrix(0.05,0,0,0.05,25,0)" xlink:href="#bo"/><use transform="matrix(0.05,0,0,0.05,39.95,0)" xlink:href="#aA"/><use transform="matrix(0.05,0,0,0.05,49.95,0)" xlink:href="#aD"/><use transform="matrix(0.05,0,0,0.05,58.95,0)" xlink:href="#ay"/><use transform="matrix(0.05,0,0,0.05,62.900000000000006,0)" xlink:href="#au"/><use transform="matrix(0.05,0,0,0.05,71.9,0)" xlink:href="#bl"/><use transform="matrix(0.05,0,0,0.05,82.85000000000001,0)" xlink:href="#ay"/><use transform="matrix(0.05,0,0,0.05,86.80000000000001,0)" xlink:href="#bd"/><use transform="matrix(0.05,0,0,0.05,90.75000000000001,0)" xlink:href="#aq"/><use transform="matrix(0.05,0,0,0.05,100.75000000000001,0)" xlink:href="#bm"/><use transform="matrix(0.05,0,0,0.05,112.75,0)" xlink:href="#ao"/><use transform="matrix(0.05,0,0,0.05,122.75,0)" xlink:href="#at"/><use transform="matrix(0.05,0,0,0.05,127.75,0)" xlink:href="#bn"/><use transform="matrix(0.05,0,0,0.05,137.75,0)" xlink:href="#aH"/><use transform="matrix(0.05,0,0,0.05,143.7,0)" xlink:href="#aI"/><use transform="matrix(0.05,0,0,0.05,149.64999999999998,0)" xlink:href="#av"/><use transform="matrix(0.05,0,0,0.05,154.64999999999998,0)" xlink:href="#aw"/><use transform="matrix(0.05,0,0,0.05,166.64999999999998,0)" xlink:href="#at"/><use transform="matrix(0.05,0,0,0.05,171.64999999999998,0)" xlink:href="#ax"/><use transform="matrix(0.05,0,0,0.05,177.59999999999997,0)" xlink:href="#ay"/><use transform="matrix(0.05,0,0,0.05,181.54999999999995,0)" xlink:href="#an"/><use transform="matrix(0.05,0,0,0.05,191.54999999999995,0)" xlink:href="#az"/></g><g id="N"><use transform="matrix(0.05,0,0,0.05,0,0)" xlink:href="#aF"/><use transform="matrix(0.05,0,0,0.05,10.5,0)" xlink:href="#az"/><use transform="matrix(0.05,0,0,0.05,20.5,0)" xlink:href="#aq"/><use transform="matrix(0.05,0,0,0.05,30.5,0)" xlink:href="#at"/><use transform="matrix(0.05,0,0,0.05,35.5,0)" xlink:href="#bo"/><use transform="matrix(0.05,0,0,0.05,50.45,0)" xlink:href="#aA"/><use transform="matrix(0.05,0,0,0.05,60.45,0)" xlink:href="#aD"/><use transform="matrix(0.05,0,0,0.05,69.45,0)" xlink:href="#ay"/><use transform="matrix(0.05,0,0,0.05,73.4,0)" xlink:href="#au"/><use transform="matrix(0.05,0,0,0.05,82.4,0)" xlink:href="#aG"/><use transform="matrix(0.05,0,0,0.05,95.35000000000001,0)" xlink:href="#ao"/><use transform="matrix(0.05,0,0,0.05,105.35000000000001,0)" xlink:href="#ap"/><use transform="matrix(0.05,0,0,0.05,120.30000000000001,0)" xlink:href="#aq"/><use transform="matrix(0.05,0,0,0.05,130.3,0)" xlink:href="#aH"/><use transform="matrix(0.05,0,0,0.05,136.25,0)" xlink:href="#aI"/><use transform="matrix(0.05,0,0,0.05,142.2,0)" xlink:href="#av"/><use transform="matrix(0.05,0,0,0.05,147.2,0)" xlink:href="#aw"/><use transform="matrix(0.05,0,0,0.05,159.2,0)" xlink:href="#ax"/><use transform="matrix(0.05,0,0,0.05,165.14999999999998,0)" xlink:href="#at"/><use transform="matrix(0.05,0,0,0.05,170.14999999999998,0)" xlink:href="#ay"/><use transform="matrix(0.05,0,0,0.05,174.09999999999997,0)" xlink:href="#an"/><use transform="matrix(0.05,0,0,0.05,184.09999999999997,0)" xlink:href="#az"/></g><g id="O"><use transform="matrix(0.05,0,0,0.05,0,0)" xlink:href="#aF"/><use transform="matrix(0.05,0,0,0.05,10.5,0)" xlink:href="#aD"/><use transform="matrix(0.05,0,0,0.05,19.5,0)" xlink:href="#aq"/><use transform="matrix(0.05,0,0,0.05,29.5,0)" xlink:href="#at"/><use transform="matrix(0.05,0,0,0.05,34.5,0)" xlink:href="#bo"/><use transform="matrix(0.05,0,0,0.05,49.45,0)" xlink:href="#aA"/><use transform="matrix(0.05,0,0,0.05,59.45,0)" xlink:href="#aD"/><use transform="matrix(0.05,0,0,0.05,68.45,0)" xlink:href="#ay"/><use transform="matrix(0.05,0,0,0.05,72.4,0)" xlink:href="#au"/><use transform="matrix(0.05,0,0,0.05,81.4,0)" xlink:href="#aG"/><use transform="matrix(0.05,0,0,0.05,94.35000000000001,0)" xlink:href="#ao"/><use transform="matrix(0.05,0,0,0.05,104.35000000000001,0)" xlink:href="#ap"/><use transform="matrix(0.05,0,0,0.05,119.30000000000001,0)" xlink:href="#aq"/><use transform="matrix(0.05,0,0,0.05,129.3,0)" xlink:href="#aH"/><use transform="matrix(0.05,0,0,0.05,135.25,0)" xlink:href="#aI"/><use transform="matrix(0.05,0,0,0.05,141.2,0)" xlink:href="#av"/><use transform="matrix(0.05,0,0,0.05,146.2,0)" xlink:href="#aL"/><use transform="matrix(0.05,0,0,0.05,155.2,0)" xlink:href="#as"/><use transform="matrix(0.05,0,0,0.05,165.2,0)" xlink:href="#ay"/><use transform="matrix(0.05,0,0,0.05,169.14999999999998,0)" xlink:href="#aC"/></g><g id="P"><use transform="matrix(0.05,0,0,0.05,0,0)" xlink:href="#aD"/><use transform="matrix(0.05,0,0,0.05,9,0)" xlink:href="#aq"/><use transform="matrix(0.05,0,0,0.05,19,0)" xlink:href="#at"/><use transform="matrix(0.05,0,0,0.05,24,0)" xlink:href="#bo"/><use transform="matrix(0.05,0,0,0.05,38.95,0)" xlink:href="#aA"/><use transform="matrix(0.05,0,0,0.05,48.95,0)" xlink:href="#aD"/><use transform="matrix(0.05,0,0,0.05,57.95,0)" xlink:href="#ay"/><use transform="matrix(0.05,0,0,0.05,61.900000000000006,0)" xlink:href="#au"/><use transform="matrix(0.05,0,0,0.05,70.9,0)" xlink:href="#bl"/><use transform="matrix(0.05,0,0,0.05,81.85000000000001,0)" xlink:href="#ay"/><use transform="matrix(0.05,0,0,0.05,85.80000000000001,0)" xlink:href="#bd"/><use transform="matrix(0.05,0,0,0.05,89.75000000000001,0)" xlink:href="#aq"/><use transform="matrix(0.05,0,0,0.05,99.75000000000001,0)" xlink:href="#bm"/><use transform="matrix(0.05,0,0,0.05,110.40000000000003,0)" xlink:href="#aZ"/><use transform="matrix(0.05,0,0,0.05,122.40000000000003,0)" xlink:href="#at"/><use transform="matrix(0.05,0,0,0.05,127.40000000000003,0)" xlink:href="#bn"/><use transform="matrix(0.05,0,0,0.05,137.40000000000003,0)" xlink:href="#aH"/><use transform="matrix(0.05,0,0,0.05,143.35000000000002,0)" xlink:href="#aw"/><use transform="matrix(0.05,0,0,0.05,155.35000000000002,0)" xlink:href="#at"/><use transform="matrix(0.05,0,0,0.05,160.35000000000002,0)" xlink:href="#ax"/><use transform="matrix(0.05,0,0,0.05,166.3,0)" xlink:href="#ay"/><use transform="matrix(0.05,0,0,0.05,170.25,0)" xlink:href="#an"/><use transform="matrix(0.05,0,0,0.05,180.25,0)" xlink:href="#az"/><use transform="matrix(0.05,0,0,0.05,190.25,0)" xlink:href="#aI"/><use transform="matrix(0.05,0,0,0.05,196.2,0)" xlink:href="#av"/><use transform="matrix(0.05,0,0,0.05,201.2,0)" xlink:href="#aL"/><use transform="matrix(0.05,0,0,0.05,210.19999999999996,0)" xlink:href="#as"/><use transform="matrix(0.05,0,0,0.05,220.19999999999996,0)" xlink:href="#ay"/><use transform="matrix(0.05,0,0,0.05,224.14999999999998,0)" xlink:href="#aC"/></g><g id="Q"><use transform="matrix(0.05,0,0,0.05,0,0)" xlink:href="#aF"/><use transform="matrix(0.05,0,0,0.05,10.5,0)" xlink:href="#au"/><use transform="matrix(0.05,0,0,0.05,19.5,0)" xlink:href="#as"/><use transform="matrix(0.05,0,0,0.05,29.5,0)" xlink:href="#ap"/><use transform="matrix(0.05,0,0,0.05,44.45,0)" xlink:href="#aE"/><use transform="matrix(0.05,0,0,0.05,54.45,0)" xlink:href="#ao"/><use transform="matrix(0.05,0,0,0.05,64.45,0)" xlink:href="#ax"/><use transform="matrix(0.05,0,0,0.05,70.4,0)" xlink:href="#aq"/><use transform="matrix(0.05,0,0,0.05,80.4,0)" xlink:href="#aM"/><use transform="matrix(0.05,0,0,0.05,89.35000000000001,0)" xlink:href="#as"/><use transform="matrix(0.05,0,0,0.05,99.35000000000001,0)" xlink:href="#aH"/><use transform="matrix(0.05,0,0,0.05,105.30000000000001,0)" xlink:href="#bo"/><use transform="matrix(0.05,0,0,0.05,120.25,0)" xlink:href="#aA"/><use transform="matrix(0.05,0,0,0.05,130.25,0)" xlink:href="#aD"/><use transform="matrix(0.05,0,0,0.05,139.25,0)" xlink:href="#ay"/><use transform="matrix(0.05,0,0,0.05,143.2,0)" xlink:href="#au"/><use transform="matrix(0.05,0,0,0.05,152.2,0)" xlink:href="#bl"/><use transform="matrix(0.05,0,0,0.05,163.14999999999998,0)" xlink:href="#ay"/><use transform="matrix(0.05,0,0,0.05,167.09999999999997,0)" xlink:href="#bd"/><use transform="matrix(0.05,0,0,0.05,171.04999999999995,0)" xlink:href="#aq"/></g><path fill="#333" d="M258-177c0 46-32 67-71 75L235 0h-57l-41-94H76L58 0H6l48-248c89 2 204-19 204 71zm-53 3c0-46-63-30-107-33l-14 73c51-2 120 13 121-40" id="bp"/><path fill="#333" d="M156-122c2-23-7-37-28-37-47 0-58 44-58 89 0 24 12 40 36 40 43 0 47-49 50-92zM-8 75l50-265h48c0 10-3 24-3 30 22-50 127-45 121 29-6 73-21 135-92 135-29 0-46-14-55-35L41 75H-8" id="bq"/><path fill="#333" d="M84-151c13-25 34-51 72-40l-8 41C67-170 71-64 56 0H6l36-190h47" id="br"/><g id="R"><use transform="matrix(0.05,0,0,0.05,0,0)" xlink:href="#bp"/><use transform="matrix(0.05,0,0,0.05,12.950000000000001,0)" xlink:href="#aP"/><use transform="matrix(0.05,0,0,0.05,22.950000000000003,0)" xlink:href="#bq"/><use transform="matrix(0.05,0,0,0.05,33.900000000000006,0)" xlink:href="#br"/><use transform="matrix(0.05,0,0,0.05,40.900000000000006,0)" xlink:href="#ah"/><use transform="matrix(0.05,0,0,0.05,51.85,0)" xlink:href="#aQ"/><use transform="matrix(0.05,0,0,0.05,62.80000000000001,0)" xlink:href="#bh"/><use transform="matrix(0.05,0,0,0.05,73.75000000000001,0)" xlink:href="#al"/><use transform="matrix(0.05,0,0,0.05,83.75000000000001,0)" xlink:href="#aP"/><use transform="matrix(0.05,0,0,0.05,93.75000000000001,0)" xlink:href="#br"/></g><g id="S"><use transform="matrix(0.05,0,0,0.05,0,0)" xlink:href="#aD"/><use transform="matrix(0.05,0,0,0.05,9,0)" xlink:href="#aq"/><use transform="matrix(0.05,0,0,0.05,19,0)" xlink:href="#at"/><use transform="matrix(0.05,0,0,0.05,24,0)" xlink:href="#bo"/><use transform="matrix(0.05,0,0,0.05,38.95,0)" xlink:href="#aA"/><use transform="matrix(0.05,0,0,0.05,48.95,0)" xlink:href="#aD"/><use transform="matrix(0.05,0,0,0.05,57.95,0)" xlink:href="#ay"/><use transform="matrix(0.05,0,0,0.05,61.900000000000006,0)" xlink:href="#au"/><use transform="matrix(0.05,0,0,0.05,70.9,0)" xlink:href="#bl"/><use transform="matrix(0.05,0,0,0.05,81.85000000000001,0)" xlink:href="#ay"/><use transform="matrix(0.05,0,0,0.05,85.80000000000001,0)" xlink:href="#bd"/><use transform="matrix(0.05,0,0,0.05,89.75000000000001,0)" xlink:href="#aq"/><use transform="matrix(0.05,0,0,0.05,99.75000000000001,0)" xlink:href="#bm"/><use transform="matrix(0.05,0,0,0.05,110.40000000000003,0)" xlink:href="#aZ"/><use transform="matrix(0.05,0,0,0.05,122.40000000000003,0)" xlink:href="#at"/><use transform="matrix(0.05,0,0,0.05,127.40000000000003,0)" xlink:href="#bn"/><use transform="matrix(0.05,0,0,0.05,137.40000000000003,0)" xlink:href="#aH"/><use transform="matrix(0.05,0,0,0.05,143.35000000000002,0)" xlink:href="#aw"/><use transform="matrix(0.05,0,0,0.05,155.35000000000002,0)" xlink:href="#at"/><use transform="matrix(0.05,0,0,0.05,160.35000000000002,0)" xlink:href="#ax"/><use transform="matrix(0.05,0,0,0.05,166.3,0)" xlink:href="#ay"/><use transform="matrix(0.05,0,0,0.05,170.25,0)" xlink:href="#an"/><use transform="matrix(0.05,0,0,0.05,180.25,0)" xlink:href="#az"/><use transform="matrix(0.05,0,0,0.05,190.25,0)" xlink:href="#aI"/><use transform="matrix(0.05,0,0,0.05,196.2,0)" xlink:href="#av"/><use transform="matrix(0.05,0,0,0.05,201.2,0)" xlink:href="#aL"/><use transform="matrix(0.05,0,0,0.05,210.19999999999996,0)" xlink:href="#as"/><use transform="matrix(0.05,0,0,0.05,220.19999999999996,0)" xlink:href="#ay"/><use transform="matrix(0.05,0,0,0.05,224.14999999999998,0)" xlink:href="#aC"/></g><path fill="#333" d="M241-173c-1 82-78 91-166 86L58 0H6l48-248c87 0 188-12 187 75zm-53 2c0-43-48-36-90-36l-15 80c50 0 105 7 105-44" id="bs"/><path fill="#333" d="M100 10C77 47 50 87-15 72l7-35c37 9 51-18 65-41L20-190h51L89-44l73-146h53" id="bt"/><path fill="#333" d="M6 0l48-248h52L66-40h133l-8 40H6" id="bu"/><g id="T"><use transform="matrix(0.05,0,0,0.05,0,0)" xlink:href="#bs"/><use transform="matrix(0.05,0,0,0.05,12,0)" xlink:href="#bc"/><use transform="matrix(0.05,0,0,0.05,17,0)" xlink:href="#ak"/><use transform="matrix(0.05,0,0,0.05,27,0)" xlink:href="#bt"/><use transform="matrix(0.05,0,0,0.05,37,0)" xlink:href="#aP"/><use transform="matrix(0.05,0,0,0.05,47,0)" xlink:href="#br"/><use transform="matrix(0.05,0,0,0.05,54,0)" xlink:href="#bu"/><use transform="matrix(0.05,0,0,0.05,64.95,0)" xlink:href="#bj"/><use transform="matrix(0.05,0,0,0.05,69.95,0)" xlink:href="#bi"/><use transform="matrix(0.05,0,0,0.05,79.95,0)" xlink:href="#aj"/></g><path fill="#333" d="M179-190L93 31C79 59 56 82 12 73V49c39 6 53-20 64-50L1-190h34L92-34l54-156h33" id="bv"/><path fill="#333" d="M30 0v-248h33v221h125V0H30" id="bw"/><g id="U"><use transform="matrix(0.05,0,0,0.05,0,0)" xlink:href="#aE"/><use transform="matrix(0.05,0,0,0.05,10,0)" xlink:href="#bd"/><use transform="matrix(0.05,0,0,0.05,13.949999999999998,0)" xlink:href="#ao"/><use transform="matrix(0.05,0,0,0.05,23.95,0)" xlink:href="#bv"/><use transform="matrix(0.05,0,0,0.05,32.95,0)" xlink:href="#aq"/><use transform="matrix(0.05,0,0,0.05,42.95,0)" xlink:href="#ax"/><use transform="matrix(0.05,0,0,0.05,48.900000000000006,0)" xlink:href="#bw"/><use transform="matrix(0.05,0,0,0.05,58.900000000000006,0)" xlink:href="#ay"/><use transform="matrix(0.05,0,0,0.05,62.85,0)" xlink:href="#aD"/><use transform="matrix(0.05,0,0,0.05,71.85000000000001,0)" xlink:href="#at"/><use transform="matrix(0.05,0,0,0.05,76.85000000000001,0)" xlink:href="#av"/><use transform="matrix(0.05,0,0,0.05,81.85000000000001,0)" xlink:href="#aw"/><use transform="matrix(0.05,0,0,0.05,93.85000000000001,0)" xlink:href="#aq"/><use transform="matrix(0.05,0,0,0.05,103.85000000000001,0)" xlink:href="#at"/><use transform="matrix(0.05,0,0,0.05,108.85000000000001,0)" xlink:href="#aR"/><use transform="matrix(0.05,0,0,0.05,119.35000000000001,0)" xlink:href="#bo"/><use transform="matrix(0.05,0,0,0.05,134.3,0)" xlink:href="#aA"/><use transform="matrix(0.05,0,0,0.05,144.3,0)" xlink:href="#aD"/><use transform="matrix(0.05,0,0,0.05,153.3,0)" xlink:href="#ay"/><use transform="matrix(0.05,0,0,0.05,157.25,0)" xlink:href="#au"/><use transform="matrix(0.05,0,0,0.05,166.25,0)" xlink:href="#bl"/><use transform="matrix(0.05,0,0,0.05,177.2,0)" xlink:href="#ay"/><use transform="matrix(0.05,0,0,0.05,181.14999999999998,0)" xlink:href="#bd"/><use transform="matrix(0.05,0,0,0.05,185.09999999999997,0)" xlink:href="#aq"/><use transform="matrix(0.05,0,0,0.05,195.09999999999997,0)" xlink:href="#aY"/></g><g id="V"><use transform="matrix(0.05,0,0,0.05,0,0)" xlink:href="#bm"/><use transform="matrix(0.05,0,0,0.05,12,0)" xlink:href="#bd"/><use transform="matrix(0.05,0,0,0.05,15.949999999999998,0)" xlink:href="#ao"/><use transform="matrix(0.05,0,0,0.05,25.950000000000003,0)" xlink:href="#bv"/><use transform="matrix(0.05,0,0,0.05,34.95,0)" xlink:href="#aq"/><use transform="matrix(0.05,0,0,0.05,44.95,0)" xlink:href="#ax"/><use transform="matrix(0.05,0,0,0.05,50.900000000000006,0)" xlink:href="#bw"/><use transform="matrix(0.05,0,0,0.05,60.900000000000006,0)" xlink:href="#ay"/><use transform="matrix(0.05,0,0,0.05,64.85000000000001,0)" xlink:href="#aD"/><use transform="matrix(0.05,0,0,0.05,73.85000000000001,0)" xlink:href="#at"/><use transform="matrix(0.05,0,0,0.05,78.85000000000001,0)" xlink:href="#aH"/><use transform="matrix(0.05,0,0,0.05,84.80000000000001,0)" xlink:href="#aI"/><use transform="matrix(0.05,0,0,0.05,90.75000000000001,0)" xlink:href="#av"/><use transform="matrix(0.05,0,0,0.05,95.75000000000001,0)" xlink:href="#aL"/><use transform="matrix(0.05,0,0,0.05,104.75,0)" xlink:href="#as"/><use transform="matrix(0.05,0,0,0.05,114.75,0)" xlink:href="#ay"/><use transform="matrix(0.05,0,0,0.05,118.7,0)" xlink:href="#aC"/></g><g id="W"><use transform="matrix(0.05,0,0,0.05,0,0)" xlink:href="#ao"/><use transform="matrix(0.05,0,0,0.05,10,0)" xlink:href="#aC"/><use transform="matrix(0.05,0,0,0.05,20,0)" xlink:href="#aC"/><use transform="matrix(0.05,0,0,0.05,30,0)" xlink:href="#bo"/><use transform="matrix(0.05,0,0,0.05,44.95,0)" xlink:href="#aA"/><use transform="matrix(0.05,0,0,0.05,54.95,0)" xlink:href="#aD"/><use transform="matrix(0.05,0,0,0.05,63.95,0)" xlink:href="#ay"/><use transform="matrix(0.05,0,0,0.05,67.9,0)" xlink:href="#au"/><use transform="matrix(0.05,0,0,0.05,76.9,0)" xlink:href="#aH"/><use transform="matrix(0.05,0,0,0.05,82.85000000000001,0)" xlink:href="#aw"/><use transform="matrix(0.05,0,0,0.05,94.85000000000001,0)" xlink:href="#at"/><use transform="matrix(0.05,0,0,0.05,99.85000000000001,0)" xlink:href="#ax"/><use transform="matrix(0.05,0,0,0.05,105.80000000000001,0)" xlink:href="#ay"/><use transform="matrix(0.05,0,0,0.05,109.75,0)" xlink:href="#an"/><use transform="matrix(0.05,0,0,0.05,119.75,0)" xlink:href="#az"/></g><g id="X"><use transform="matrix(0.05,0,0,0.05,0,0)" xlink:href="#an"/><use transform="matrix(0.05,0,0,0.05,10,0)" xlink:href="#ao"/><use transform="matrix(0.05,0,0,0.05,20,0)" xlink:href="#ap"/><use transform="matrix(0.05,0,0,0.05,34.95,0)" xlink:href="#aq"/><use transform="matrix(0.05,0,0,0.05,44.95,0)" xlink:href="#bo"/><use transform="matrix(0.05,0,0,0.05,59.900000000000006,0)" xlink:href="#aA"/><use transform="matrix(0.05,0,0,0.05,69.9,0)" xlink:href="#aD"/><use transform="matrix(0.05,0,0,0.05,78.9,0)" xlink:href="#ay"/><use transform="matrix(0.05,0,0,0.05,82.85000000000001,0)" xlink:href="#au"/><use transform="matrix(0.05,0,0,0.05,91.85000000000001,0)" xlink:href="#ba"/></g><g id="Y"><use transform="matrix(0.05,0,0,0.05,0,0)" xlink:href="#aw"/><use transform="matrix(0.05,0,0,0.05,12,0)" xlink:href="#at"/><use transform="matrix(0.05,0,0,0.05,17,0)" xlink:href="#ax"/><use transform="matrix(0.05,0,0,0.05,22.95,0)" xlink:href="#ay"/><use transform="matrix(0.05,0,0,0.05,26.899999999999995,0)" xlink:href="#an"/><use transform="matrix(0.05,0,0,0.05,36.9,0)" xlink:href="#az"/></g><g id="Z"><use transform="matrix(0.05,0,0,0.05,0,0)" xlink:href="#ap"/><use transform="matrix(0.05,0,0,0.05,14.950000000000001,0)" xlink:href="#aA"/><use transform="matrix(0.05,0,0,0.05,24.950000000000003,0)" xlink:href="#aD"/><use transform="matrix(0.05,0,0,0.05,33.95,0)" xlink:href="#ay"/><use transform="matrix(0.05,0,0,0.05,37.900000000000006,0)" xlink:href="#au"/></g><g id="aa"><use transform="matrix(0.05,0,0,0.05,0,0)" xlink:href="#bf"/><use transform="matrix(0.05,0,0,0.05,5,0)" xlink:href="#ay"/><use transform="matrix(0.05,0,0,0.05,8.95,0)" xlink:href="#bd"/><use transform="matrix(0.05,0,0,0.05,12.899999999999999,0)" xlink:href="#aq"/><use transform="matrix(0.05,0,0,0.05,22.9,0)" xlink:href="#bm"/><use transform="matrix(0.05,0,0,0.05,34.9,0)" xlink:href="#ao"/><use transform="matrix(0.05,0,0,0.05,44.9,0)" xlink:href="#at"/><use transform="matrix(0.05,0,0,0.05,49.9,0)" xlink:href="#bn"/><use transform="matrix(0.05,0,0,0.05,59.900000000000006,0)" xlink:href="#aI"/><use transform="matrix(0.05,0,0,0.05,65.85,0)" xlink:href="#av"/><use transform="matrix(0.05,0,0,0.05,70.85,0)" xlink:href="#aL"/><use transform="matrix(0.05,0,0,0.05,79.85,0)" xlink:href="#as"/><use transform="matrix(0.05,0,0,0.05,89.85,0)" xlink:href="#ay"/><use transform="matrix(0.05,0,0,0.05,93.8,0)" xlink:href="#aC"/></g><g id="ab"><use transform="matrix(0.05,0,0,0.05,0,0)" xlink:href="#ax"/><use transform="matrix(0.05,0,0,0.05,5.95,0)" xlink:href="#aq"/><use transform="matrix(0.05,0,0,0.05,15.949999999999998,0)" xlink:href="#ap"/><use transform="matrix(0.05,0,0,0.05,30.899999999999995,0)" xlink:href="#as"/><use transform="matrix(0.05,0,0,0.05,40.9,0)" xlink:href="#aL"/><use transform="matrix(0.05,0,0,0.05,49.9,0)" xlink:href="#aq"/><use transform="matrix(0.05,0,0,0.05,59.900000000000006,0)" xlink:href="#bo"/><use transform="matrix(0.05,0,0,0.05,74.85,0)" xlink:href="#aA"/><use transform="matrix(0.05,0,0,0.05,84.85,0)" xlink:href="#aD"/><use transform="matrix(0.05,0,0,0.05,93.85,0)" xlink:href="#ay"/><use transform="matrix(0.05,0,0,0.05,97.8,0)" xlink:href="#au"/><use transform="matrix(0.05,0,0,0.05,106.80000000000001,0)" xlink:href="#aH"/><use transform="matrix(0.05,0,0,0.05,112.75,0)" xlink:href="#aw"/><use transform="matrix(0.05,0,0,0.05,124.75,0)" xlink:href="#aq"/><use transform="matrix(0.05,0,0,0.05,134.75,0)" xlink:href="#at"/><use transform="matrix(0.05,0,0,0.05,139.75,0)" xlink:href="#aR"/><use transform="matrix(0.05,0,0,0.05,150.25,0)" xlink:href="#bo"/><use transform="matrix(0.05,0,0,0.05,165.2,0)" xlink:href="#aA"/><use transform="matrix(0.05,0,0,0.05,175.2,0)" xlink:href="#aD"/><use transform="matrix(0.05,0,0,0.05,184.2,0)" xlink:href="#ay"/><use transform="matrix(0.05,0,0,0.05,188.14999999999998,0)" xlink:href="#au"/><use transform="matrix(0.05,0,0,0.05,197.14999999999998,0)" xlink:href="#bl"/><use transform="matrix(0.05,0,0,0.05,208.09999999999997,0)" xlink:href="#ay"/><use transform="matrix(0.05,0,0,0.05,212.04999999999995,0)" xlink:href="#bd"/><use transform="matrix(0.05,0,0,0.05,215.99999999999991,0)" xlink:href="#aq"/><use transform="matrix(0.05,0,0,0.05,225.99999999999991,0)" xlink:href="#aY"/></g><g id="ac"><use transform="matrix(0.05,0,0,0.05,0,0)" xlink:href="#ax"/><use transform="matrix(0.05,0,0,0.05,5.95,0)" xlink:href="#aq"/><use transform="matrix(0.05,0,0,0.05,15.949999999999998,0)" xlink:href="#ap"/><use transform="matrix(0.05,0,0,0.05,30.899999999999995,0)" xlink:href="#as"/><use transform="matrix(0.05,0,0,0.05,40.9,0)" xlink:href="#aL"/><use transform="matrix(0.05,0,0,0.05,49.9,0)" xlink:href="#aq"/><use transform="matrix(0.05,0,0,0.05,59.900000000000006,0)" xlink:href="#bo"/><use transform="matrix(0.05,0,0,0.05,74.85,0)" xlink:href="#aA"/><use transform="matrix(0.05,0,0,0.05,84.85,0)" xlink:href="#aD"/><use transform="matrix(0.05,0,0,0.05,93.85,0)" xlink:href="#ay"/><use transform="matrix(0.05,0,0,0.05,97.8,0)" xlink:href="#au"/><use transform="matrix(0.05,0,0,0.05,106.80000000000001,0)" xlink:href="#aI"/><use transform="matrix(0.05,0,0,0.05,112.75,0)" xlink:href="#av"/><use transform="matrix(0.05,0,0,0.05,117.75,0)" xlink:href="#aL"/><use transform="matrix(0.05,0,0,0.05,126.75,0)" xlink:href="#as"/><use transform="matrix(0.05,0,0,0.05,136.75,0)" xlink:href="#ay"/><use transform="matrix(0.05,0,0,0.05,140.7,0)" xlink:href="#aC"/></g><path fill="#333" d="M240-76C239 26 104-5 6 0l48-248c79 4 193-21 193 58 0 38-25 53-57 60 29 5 49 21 50 54zm-45-106c0-40-58-24-96-27l-12 61c45-3 108 12 108-34zm-7 105c0-44-65-31-109-33L66-38c51-3 122 14 122-39" id="bx"/><g id="ad"><use transform="matrix(0.05,0,0,0.05,0,0)" xlink:href="#bx"/><use transform="matrix(0.05,0,0,0.05,12.950000000000001,0)" xlink:href="#br"/><use transform="matrix(0.05,0,0,0.05,19.950000000000003,0)" xlink:href="#ah"/><use transform="matrix(0.05,0,0,0.05,30.900000000000006,0)" xlink:href="#aP"/><use transform="matrix(0.05,0,0,0.05,40.900000000000006,0)" xlink:href="#bi"/><use transform="matrix(0.05,0,0,0.05,50.900000000000006,0)" xlink:href="#aP"/><use transform="matrix(0.05,0,0,0.05,60.900000000000006,0)" xlink:href="#br"/></g><path fill="#333" d="M255-194c90 0 29 129 24 194h-49l25-136c-7-39-53-14-60 9-12 38-18 85-28 127h-49l25-136c2-29-39-23-50-7C69-108 68-47 56 0H6l36-190h48c-1 10-6 24-4 32 12-20 27-36 57-36s46 15 50 41c14-21 29-41 62-41" id="by"/><g id="ae"><use transform="matrix(0.05,0,0,0.05,0,0)" xlink:href="#bs"/><use transform="matrix(0.05,0,0,0.05,12,0)" xlink:href="#br"/><use transform="matrix(0.05,0,0,0.05,19,0)" xlink:href="#ah"/><use transform="matrix(0.05,0,0,0.05,29.950000000000003,0)" xlink:href="#aO"/><use transform="matrix(0.05,0,0,0.05,40.900000000000006,0)" xlink:href="#br"/><use transform="matrix(0.05,0,0,0.05,47.900000000000006,0)" xlink:href="#ak"/><use transform="matrix(0.05,0,0,0.05,57.900000000000006,0)" xlink:href="#by"/></g><path fill="#333" d="M26 75v-336h71v23H56V52h41v23H26" id="bz"/><path fill="#333" d="M3 75V52h41v-290H3v-23h71V75H3" id="bA"/><g id="af"><use transform="matrix(0.05,0,0,0.05,0,0)" xlink:href="#aF"/><use transform="matrix(0.05,0,0,0.05,10.5,0)" xlink:href="#ap"/><use transform="matrix(0.05,0,0,0.05,25.450000000000003,0)" xlink:href="#ao"/><use transform="matrix(0.05,0,0,0.05,35.45,0)" xlink:href="#ay"/><use transform="matrix(0.05,0,0,0.05,39.400000000000006,0)" xlink:href="#an"/><use transform="matrix(0.05,0,0,0.05,49.400000000000006,0)" xlink:href="#aH"/><use transform="matrix(0.05,0,0,0.05,55.35,0)" xlink:href="#aw"/><use transform="matrix(0.05,0,0,0.05,67.35000000000001,0)" xlink:href="#at"/><use transform="matrix(0.05,0,0,0.05,72.35000000000001,0)" xlink:href="#ax"/><use transform="matrix(0.05,0,0,0.05,78.30000000000001,0)" xlink:href="#ay"/><use transform="matrix(0.05,0,0,0.05,82.25000000000001,0)" xlink:href="#an"/><use transform="matrix(0.05,0,0,0.05,92.25000000000001,0)" xlink:href="#az"/><use transform="matrix(0.05,0,0,0.05,102.25000000000001,0)" xlink:href="#bz"/><use transform="matrix(0.05,0,0,0.05,107.25,0)" xlink:href="#bA"/><use transform="matrix(0.05,0,0,0.05,112.25,0)" xlink:href="#ao"/><use transform="matrix(0.05,0,0,0.05,122.25,0)" xlink:href="#ax"/><use transform="matrix(0.05,0,0,0.05,128.20000000000002,0)" xlink:href="#az"/><use transform="matrix(0.05,0,0,0.05,138.20000000000002,0)" xlink:href="#aD"/><use transform="matrix(0.05,0,0,0.05,147.20000000000002,0)" xlink:href="#aI"/><use transform="matrix(0.05,0,0,0.05,153.15,0)" xlink:href="#av"/><use transform="matrix(0.05,0,0,0.05,158.15,0)" xlink:href="#aL"/><use transform="matrix(0.05,0,0,0.05,167.15,0)" xlink:href="#as"/><use transform="matrix(0.05,0,0,0.05,177.15,0)" xlink:href="#ay"/><use transform="matrix(0.05,0,0,0.05,181.1,0)" xlink:href="#aC"/></g></defs></g></svg>